<svg width="302" height="69" viewBox="0 0 302 69" fill="none" xmlns="http://www.w3.org/2000/svg">
<g clip-path="url(#clip0_157_362)">
<path fill-rule="evenodd" clip-rule="evenodd" d="M84.835 9.27553C84.3126 9.13332 83.7723 9.06777 83.2311 9.08095C83.1191 9.08095 83.007 9.08297 82.8889 9.08706C82.5921 9.07782 82.2968 9.13363 82.0238 9.25059C81.7508 9.36754 81.5068 9.54282 81.3087 9.7641C81.1961 9.34028 80.59 9.30615 80.2557 9.28727C79.2069 9.20222 78.196 8.85635 77.315 8.28111C76.998 8.05892 76.7112 7.79662 76.4617 7.50074C76.5015 7.48289 76.5232 7.47273 76.541 7.46456C77.0126 7.31178 77.4432 7.05375 77.8003 6.70999C78.1573 6.36624 78.4316 5.94577 78.6022 5.4804C78.8101 5.07549 78.9294 4.63093 78.952 4.17633C78.9747 3.72172 78.9003 3.2675 78.7337 2.84391C78.6857 2.74942 78.6129 2.66981 78.523 2.61366C78.4332 2.55751 78.3297 2.52695 78.2237 2.52527C77.9359 2.52527 77.75 2.7252 77.5349 2.95672C77.2895 3.27538 76.95 3.50885 76.5647 3.62411C76.1434 3.70744 75.7435 3.87556 75.3892 4.11824L75.3321 4.16308C75.2225 4.24368 75.1283 4.34342 75.0542 4.45749C74.9408 4.48857 74.8231 4.50129 74.7057 4.49518C74.2448 4.47635 73.7859 4.42512 73.3322 4.34187C73.2809 4.33116 73.2333 4.32456 73.1438 4.3118L73.0903 4.30005C72.5269 4.21226 71.9575 4.1685 71.3873 4.16919C70.1595 4.18169 68.9387 4.35464 67.7558 4.68365C66.2197 5.19412 64.7313 5.83811 63.3075 6.60824C63.1044 6.54587 62.9053 6.47084 62.7116 6.38358L62.6803 6.36683L62.6473 6.35461C62.2447 6.20994 61.8203 6.13566 61.3925 6.13502C60.8264 6.14882 60.2667 6.25889 59.7376 6.46053C59.6609 6.48649 59.5898 6.51047 59.5302 6.52878C58.7503 6.71552 57.9492 6.79892 57.1475 6.77684C56.908 6.77588 56.6825 6.75597 56.4812 6.73811C56.2923 6.72184 56.1217 6.70811 55.977 6.70811C55.8441 6.69734 55.7104 6.71448 55.5845 6.75843C55.4586 6.80238 55.3433 6.87217 55.2459 6.96331C55.1739 7.04599 55.1205 7.14318 55.0893 7.2483C55.0581 7.35342 55.0499 7.46402 55.0652 7.57259C55.1756 8.76203 56.9423 10.1966 58.5871 10.897C59.2379 11.1834 59.9403 11.334 60.6513 11.3397C61.1611 11.3297 61.6682 11.2633 62.1634 11.1415C62.3059 11.1109 62.443 11.0814 62.5742 11.0585C62.6002 11.054 62.6265 11.0513 62.6528 11.0503C62.7987 11.4613 62.8678 11.8956 62.8566 12.3315C62.8631 13.596 63.1576 14.8423 63.7176 15.976L63.7167 15.9824C63.7145 16.0385 63.7121 16.0946 63.7099 16.1507L63.471 16.9515C63.2485 17.7057 62.8726 18.4059 62.3669 19.0081C61.8612 19.6104 61.2365 20.1016 60.5321 20.4512L59.9032 20.7324C59.7075 20.6262 59.4994 20.5447 59.2836 20.4899C58.9531 20.3956 58.6114 20.3464 58.2677 20.3437C57.2386 20.4072 56.236 20.6957 55.3305 21.1888C54.1089 21.7782 53.2079 22.3003 52.4834 22.7201C50.7584 23.7196 49.8925 24.2213 47.3249 24.2213C46.7271 24.2213 46.0449 24.1933 45.2385 24.1368C43.2931 23.9476 41.3965 23.4159 39.6363 22.5662C36.657 21.2036 33.451 20.4051 30.1806 20.2112C29.9299 20.1949 29.6791 20.1867 29.4281 20.1867C27.2314 20.2061 25.0778 20.7994 23.181 21.9075C21.2841 23.0157 19.7098 24.6004 18.6141 26.5046C16.8521 29.637 17.0182 32.5207 17.4187 35.9654C17.6045 37.5988 17.9244 39.2142 18.3749 40.7952C18.636 41.7896 18.6089 42.8378 18.2967 43.8174C17.9845 44.797 17.4001 45.6675 16.6118 46.3275C15.1727 47.6678 16.6928 49.6687 17.2654 50.4232C18.903 52.5689 19.6775 55.7945 20.0499 57.3446C20.2658 58.2449 20.3045 58.4068 20.4959 58.5306C21.2929 59.0858 21.2443 59.3018 21.1139 59.8785C20.9815 60.3585 20.946 60.8601 21.0095 61.354C21.0731 61.8479 21.2343 62.3243 21.4838 62.7552C21.7447 63.2778 22.4379 63.5321 23.6045 63.5321C24.8351 63.5321 27.4403 63.1235 27.8226 62.3741C27.8724 62.2797 27.8948 62.1732 27.887 62.0668C27.8792 61.9603 27.8417 61.8582 27.7787 61.772C26.1168 59.4199 24.6752 56.9196 23.4721 54.3029C22.5211 52.2756 22.336 50.5991 22.9363 49.1344L23.2505 49.2515C23.5331 49.3575 23.8077 49.4462 24.0799 49.5195C23.9712 49.6828 23.9029 49.8695 23.8806 50.0644C23.8582 50.2592 23.8825 50.4566 23.9514 50.6402C24.0318 50.8404 24.1656 51.0148 24.3382 51.1444C24.5107 51.274 24.7154 51.3539 24.9302 51.3753C24.9887 51.3809 25.0436 51.384 25.096 51.384C26.0737 51.384 26.2366 50.5241 26.3346 50.0106C26.3456 49.9494 26.3574 49.8898 26.3692 49.8323C26.4709 49.8348 26.573 49.8362 26.6757 49.8363C27.0704 49.837 27.4647 49.8142 27.8567 49.7681L27.8734 49.8384C27.8971 49.936 27.9132 50.0353 27.9218 50.1353C27.9304 50.2441 27.9481 50.352 27.9748 50.4578C28.0246 50.7344 28.1722 50.9838 28.3907 51.1604C28.6092 51.3371 28.8839 51.4293 29.1648 51.4201C29.3793 51.424 29.5911 51.3715 29.7789 51.2677C29.9667 51.164 30.124 51.0128 30.235 50.8292C30.3616 50.5813 30.4207 50.3046 30.4065 50.0267C30.3922 49.7487 30.305 49.4795 30.1537 49.2459C30.4654 49.1343 30.7743 49.0072 31.0803 48.8644C31.248 49.1149 31.4719 49.3226 31.7343 49.4709C31.9966 49.6193 32.2901 49.7041 32.5911 49.7186C32.915 49.7244 33.2285 49.6041 33.4655 49.3833C33.7025 49.1625 33.8445 48.8582 33.8616 48.5347C33.8815 48.3119 33.8357 48.0882 33.7298 47.8912C33.6238 47.6941 33.4625 47.5325 33.2656 47.4263C33.4708 47.2414 33.6828 47.0315 33.9182 46.7808L34.2156 46.4641C34.8818 46.8266 35.5786 47.1298 36.2979 47.3702C39.0221 48.2201 41.8584 48.6561 44.7121 48.6637C44.8313 48.6637 44.9491 48.6632 45.063 48.6611C47.1241 48.6593 49.1777 48.4144 51.1813 47.9316C53.2767 47.4955 55.2905 46.7328 57.1491 45.6714C57.8297 45.2394 58.4726 44.7626 58.9417 44.4147C59.2092 44.216 59.4242 44.056 59.5648 43.9659L59.767 43.836C59.8537 44.1735 59.9821 44.499 60.1492 44.8049L60.1781 44.8491C61.1489 46.1401 62.9865 46.1701 64.4632 46.1936C64.7543 46.1986 65.0328 46.2027 65.2865 46.217C65.6293 46.2384 65.9446 46.246 66.2357 46.246C66.7363 46.246 67.1683 46.222 67.5152 46.2022C67.7624 46.1884 67.9763 46.1762 68.1603 46.1762C68.5264 46.1762 68.611 46.2292 68.6431 46.2694C69.9523 47.9179 69.6741 50.3208 69.5406 51.4756C69.4648 52.1293 69.4195 52.5235 69.874 52.6473C70.2706 52.7324 70.3349 53.0824 70.3343 53.8863C70.3275 54.1007 70.3379 54.3153 70.3654 54.5281C70.559 55.8338 71.618 56.6132 73.1988 56.6132C74.5096 56.6132 76.1489 56.0334 76.5004 55.171C76.5735 54.9956 76.59 54.8018 76.5476 54.6166C76.5052 54.4314 76.4061 54.264 76.264 54.1379C74.5285 52.4319 73.452 48.2729 73.2608 46.4238C73.0307 44.2807 72.6187 43.3719 71.6375 42.8279C70.9382 42.4713 70.1798 42.2453 69.3995 42.161C68.7535 42.0849 68.1217 41.9167 67.5235 41.6613C67.182 41.4775 66.8954 41.2063 66.6932 40.8754L67.0538 40.6608C68.6254 39.6407 69.9183 38.2454 70.8157 36.6007C71.7131 34.956 72.1868 33.1137 72.1941 31.2401C72.2018 30.2539 72.1749 29.4368 72.151 28.7165C72.0461 27.1104 72.1319 25.4975 72.4067 23.9116C72.8382 21.5439 73.5074 20.497 75.1789 18.735L75.2805 18.6249C75.3837 18.5113 75.526 18.3559 75.5977 18.3417L76.239 18.1889C76.4724 18.3359 76.7158 18.4663 76.9676 18.5791C77.3534 18.7422 77.7686 18.8243 78.1875 18.8201C78.9675 18.82 79.7272 18.572 80.3571 18.1119C80.4203 18.0638 80.4697 18.0072 80.5263 17.955L80.9951 18.1013C81.2657 18.1824 81.5469 18.2223 81.8294 18.2194C82.6491 18.2188 83.4499 17.9736 84.1295 17.5154C84.4471 17.2747 84.7034 16.9624 84.8774 16.6038C85.0515 16.2453 85.1384 15.8508 85.1311 15.4523C85.1519 15.2429 85.1733 15.0177 85.22 14.7691L85.381 13.92L85.3148 13.9507C85.7942 13.4988 86.1448 12.9275 86.3307 12.2954C86.5053 11.6962 86.4485 11.0532 86.1715 10.4939C85.8945 9.93462 85.4175 9.49976 84.835 9.27553Z" fill="white"/>
<path fill-rule="evenodd" clip-rule="evenodd" d="M70.8297 63.1817L71.6023 61.2827L69.6134 62.3448L69.9026 61.2827L68.9262 62.1279V59.5422L67.8774 62.1055L66.2502 61.1876L66.8248 62.5764C60.4863 61.7343 54.1017 61.2872 47.7078 61.2378L48.5476 60.1862L46.682 60.872L46.6081 58.6857L45.3283 60.6352L42.2269 59.4532L42.9508 61.2608C42.8234 61.2633 42.693 61.263 42.5658 61.2658C40.9576 61.3016 39.3858 61.3579 37.8278 61.4303L38.4779 59.314L35.8329 60.6324V59.477L34.7308 60.6324L33.2612 57.4231L32.9673 61.0093L30.9466 60.2921L32.3654 61.776C29.1318 62.0409 25.9139 62.4135 22.5906 62.9356C14.9491 64.1912 7.40162 65.9637 0 68.2407C0.338348 68.2971 23.9972 62.6819 45.8787 62.7373C61.4276 62.7888 71.7553 63.8458 88.0718 67.6829C88.8935 67.875 88.7397 67.618 88.8746 67.5783C82.9859 65.6358 76.9519 64.1656 70.8297 63.1817Z" fill="#4B6D14"/>
<path fill-rule="evenodd" clip-rule="evenodd" d="M95.362 16.4222C95.3031 16.2126 95.1824 16.0256 95.0157 15.8855C94.849 15.7454 94.644 15.6588 94.4274 15.6369C94.5755 15.6132 94.7204 15.5724 94.8591 15.5154C94.9972 15.4332 95.1068 15.3107 95.1731 15.1643C95.2394 15.018 95.2593 14.8548 95.2301 14.6968C95.2113 14.5314 95.137 14.3773 95.0193 14.2596C94.9016 14.1419 94.7474 14.0676 94.582 14.0488C94.5429 14.0427 94.5034 14.0397 94.4639 14.0396C94.3237 14.0458 94.187 14.0847 94.0644 14.153C93.9419 14.2214 93.837 14.3174 93.7581 14.4334C93.7836 14.3006 93.7971 14.1657 93.7985 14.0305C93.7664 13.79 93.6481 13.5695 93.4656 13.4097C93.2831 13.2499 93.0488 13.1619 92.8062 13.1619C92.6602 13.1633 92.5168 13.2008 92.3888 13.2711C92.2608 13.3414 92.1522 13.4423 92.0727 13.5648C91.625 14.2041 92.1853 14.9725 92.5753 15.3903C92.2024 15.1549 91.7802 15.0089 91.3416 14.9637C91.1568 14.9815 90.9812 15.0527 90.8361 15.1686C90.6911 15.2844 90.5828 15.44 90.5246 15.6163C90.4605 15.7868 90.4527 15.9734 90.5025 16.1486C90.5523 16.3238 90.657 16.4785 90.8011 16.5898C90.963 16.7254 91.1683 16.7983 91.3795 16.7951C91.7303 16.7702 92.0668 16.6462 92.3498 16.4375C92.1929 16.6273 92.0696 16.8424 91.9851 17.0737C91.954 17.1889 91.9505 17.3097 91.9747 17.4265C91.9989 17.5433 92.0503 17.6528 92.1246 17.7461C92.2004 17.8578 92.3015 17.95 92.4198 18.0151C92.538 18.0802 92.67 18.1163 92.8049 18.1206C92.9801 18.1185 93.15 18.0595 93.2888 17.9524C93.4291 17.8392 93.5336 17.6876 93.5894 17.5161C93.6453 17.3446 93.6502 17.1606 93.6035 16.9863C93.6866 17.1074 93.7815 17.22 93.8869 17.3223C94.0332 17.4497 94.2226 17.5165 94.4164 17.5092C94.5644 17.5106 94.7109 17.4798 94.8458 17.419C94.9808 17.3582 95.1009 17.2689 95.198 17.1572C95.28 17.0556 95.3375 16.9364 95.3659 16.8089C95.3943 16.6814 95.393 16.5491 95.362 16.4222Z" fill="white"/>
<path d="M95.1238 15.6402C95.2631 15.5216 95.3697 15.3693 95.4334 15.1979C95.4972 15.0265 95.5161 14.8416 95.4883 14.6608C95.4614 14.44 95.3616 14.2344 95.2046 14.0768C95.0477 13.9192 94.8425 13.8185 94.6218 13.7907C94.5697 13.7826 94.5171 13.7785 94.4644 13.7785C94.3101 13.7802 94.1594 13.8247 94.0289 13.907C93.9692 13.6256 93.8156 13.3728 93.5934 13.19C93.3713 13.0072 93.0936 12.9052 92.8059 12.9009C92.6178 12.9018 92.4329 12.9493 92.2676 13.039C92.1024 13.1288 91.9619 13.2581 91.8587 13.4153C91.7504 13.5694 91.6802 13.7468 91.6536 13.9332C91.6271 14.1196 91.645 14.3097 91.706 14.4878C89.4718 13.6357 87.032 13.4798 84.7075 14.0406L84.8613 14.5388C86.8845 14.0521 89.0031 14.1364 90.9813 14.7822C90.8195 14.8519 90.6738 14.954 90.553 15.0821C90.4323 15.2103 90.339 15.3618 90.279 15.5274C90.1954 15.7482 90.1848 15.9901 90.2487 16.2174C90.3127 16.4448 90.4479 16.6456 90.6344 16.7905C90.8436 16.9643 91.1076 17.0582 91.3795 17.0557C91.5014 17.0539 91.6223 17.0338 91.7382 16.9959C91.6946 17.1493 91.6877 17.3108 91.7179 17.4674C91.7481 17.6241 91.8147 17.7714 91.9123 17.8976C92.0122 18.043 92.1452 18.1627 92.3003 18.2468C92.4555 18.3309 92.6284 18.377 92.8048 18.3813C93.0353 18.3786 93.2589 18.3021 93.4428 18.163C93.6326 18.0184 93.7658 17.812 93.8193 17.5795C93.994 17.7029 94.2025 17.7693 94.4164 17.7697C94.6031 17.7718 94.788 17.7328 94.958 17.6555C95.128 17.5782 95.2789 17.4646 95.4001 17.3225C95.5058 17.1903 95.5802 17.036 95.6179 16.871C95.6556 16.706 95.6555 16.5347 95.6176 16.3697C95.5556 16.071 95.3781 15.8088 95.1238 15.6402ZM94.4644 14.3002C94.4905 14.3002 94.5166 14.3023 94.5424 14.3062C94.6464 14.3265 94.7422 14.3769 94.8177 14.4512C94.8933 14.5254 94.9454 14.6203 94.9675 14.7239C94.9896 14.8275 94.9807 14.9353 94.942 15.034C94.9033 15.1326 94.8365 15.2177 94.7498 15.2786C94.4342 15.4011 94.0974 15.4598 93.7589 15.4511C93.6452 15.4511 93.5732 15.4457 93.5732 15.4457C93.5732 15.4457 93.8512 14.3003 94.4644 14.3002ZM92.286 13.7144C92.3413 13.6261 92.4178 13.553 92.5087 13.502C92.5995 13.451 92.7017 13.4237 92.8059 13.4225C92.9795 13.4234 93.1473 13.4845 93.2809 13.5954C93.4144 13.7063 93.5053 13.8601 93.5381 14.0305C93.5188 14.5237 93.3493 14.9992 93.0523 15.3934C93.0523 15.3934 91.7829 14.4333 92.286 13.7144ZM91.3795 16.534C91.2294 16.5369 91.0834 16.4857 90.9681 16.3896C90.8726 16.3028 90.8042 16.1904 90.7708 16.0657C90.7375 15.9411 90.7408 15.8095 90.7802 15.6867C90.8196 15.5638 90.8935 15.4549 90.9931 15.3729C91.0926 15.2909 91.2137 15.2393 91.3419 15.2242C91.3509 15.2242 91.3597 15.2245 91.3685 15.2253C91.8626 15.2949 92.33 15.4927 92.7241 15.7989C92.3632 16.1777 91.8932 16.4347 91.3795 16.534ZM93.1347 17.7423C93.0403 17.816 92.9246 17.8572 92.8048 17.8597C92.7201 17.854 92.6374 17.8309 92.5619 17.7919C92.4864 17.7529 92.4198 17.6988 92.3661 17.6329C92.3124 17.567 92.2729 17.4908 92.2499 17.409C92.2269 17.3272 92.221 17.2416 92.2325 17.1574C92.3956 16.7534 92.6617 16.3991 93.0042 16.1297C93.0042 16.1297 93.7243 17.3103 93.1347 17.7423ZM94.4164 17.2481C94.2894 17.2545 94.1645 17.2134 94.0662 17.1326C93.7241 16.7694 93.4829 16.3229 93.3667 15.8376C93.4875 15.8254 93.6087 15.8195 93.7301 15.82C94.2052 15.82 94.9909 15.9076 95.1063 16.474C95.1267 16.5726 95.1237 16.6747 95.0976 16.7721C95.0715 16.8694 95.023 16.9593 94.9559 17.0345C94.8889 17.1097 94.8052 17.1682 94.7115 17.2053C94.6178 17.2424 94.5168 17.257 94.4164 17.2481Z" fill="black"/>
<path d="M62.017 8.35606C61.6485 8.25199 61.2664 8.2041 60.8836 8.21401C60.2001 8.23343 59.5184 8.29393 58.8422 8.3952C58.7234 8.40877 58.604 8.41558 58.4844 8.41559C58.0522 8.40202 57.6235 8.3343 57.2082 8.21401C57.1789 8.20085 57.1471 8.19406 57.115 8.19409C56.9082 8.19409 56.7495 8.47937 57.9335 9.01656C58.8721 9.47965 59.8974 9.74075 60.9432 9.78299C61.5883 9.81593 62.2239 9.61628 62.7343 9.22033C62.7957 9.18006 62.8386 9.11708 62.8536 9.04522C62.8686 8.97335 62.8544 8.89848 62.8142 8.83703C62.8115 8.82541 62.7033 8.57632 62.017 8.35606Z" fill="black"/>
<path d="M83.7949 10.9078C83.4228 10.9684 83.0647 11.4735 83.5596 11.6984C83.6238 11.733 83.6947 11.7536 83.7675 11.7586C84.0102 11.7586 83.9265 11.3617 84.3469 11.1938C84.4022 11.161 84.45 11.1172 84.4875 11.065C84.5251 11.0129 84.5514 10.9536 84.565 10.8908C84.4722 10.8593 84.3746 10.8444 84.2766 10.8468C84.1144 10.8508 83.953 10.8712 83.7949 10.9078Z" fill="black"/>
<path d="M84.9882 8.85962C84.4172 8.69924 83.8257 8.62439 83.2327 8.63751C83.1149 8.63751 82.9976 8.63954 82.8818 8.64359C82.3381 8.63745 81.8068 8.80561 81.3658 9.12344C81.0324 8.93915 80.6575 8.84317 80.2766 8.84462C79.3159 8.76696 78.3897 8.45152 77.5813 7.92672C77.4613 7.83987 77.3506 7.75336 77.2485 7.66616C78.0487 7.21856 78.6704 6.509 79.0089 5.65687C79.2423 5.19083 79.3735 4.68031 79.3937 4.15947C79.4138 3.63863 79.3225 3.11949 79.1259 2.63679C79.0402 2.4711 78.911 2.33189 78.7521 2.2341C78.5933 2.13632 78.4108 2.08365 78.2243 2.08176C78.0236 2.09763 77.8289 2.15717 77.6537 2.25621C77.4785 2.35525 77.3271 2.4914 77.21 2.65512C77.0259 2.90048 76.7733 3.08582 76.4839 3.18777L76.4707 3.19059L76.4578 3.19381C76.0398 3.2852 75.6401 3.44579 75.275 3.66894C75.2888 2.98535 75.1182 2.31068 74.781 1.71587C74.4439 1.12105 73.9527 0.628091 73.3591 0.288825C73.1921 0.173595 72.9975 0.104745 72.7952 0.0893074C72.7093 0.0869565 72.6243 0.108452 72.5498 0.151412C72.4753 0.194372 72.4142 0.257119 72.3731 0.332702C72.3268 0.431109 72.31 0.540861 72.3248 0.648627C72.3396 0.756393 72.3854 0.857538 72.4566 0.939777C72.6966 1.37374 72.8395 1.85464 72.8754 2.34924C72.9113 2.84383 72.8393 3.34033 72.6645 3.80439C72.2407 3.75452 71.8145 3.72823 71.3878 3.72564C70.1216 3.73821 68.8624 3.9161 67.6423 4.25479C66.929 4.47604 66.2296 4.73987 65.5479 5.04484C64.6905 4.04953 64.2434 2.76552 64.2973 1.4529C64.303 1.29095 64.311 1.14511 64.3179 1.01748C64.3442 0.529581 64.3563 0.306924 64.1926 0.134041C64.1527 0.0915779 64.1045 0.0577687 64.051 0.0347112C63.9975 0.0116537 63.9398 -0.000160451 63.8815 1.64568e-06C63.7598 0.00274105 63.6434 0.0499271 63.5541 0.132651C62.0752 1.44636 61.6523 3.94326 62.3793 5.82663C62.0572 5.74196 61.726 5.69657 61.393 5.69144C60.7785 5.70563 60.1707 5.8237 59.5955 6.04064C59.5228 6.06515 59.4555 6.08795 59.3934 6.10717C58.6565 6.27885 57.9005 6.35479 57.1442 6.33312C56.9335 6.33216 56.7231 6.31404 56.5196 6.29646C56.3291 6.27998 56.1492 6.26446 55.9772 6.26446C55.7827 6.25353 55.588 6.28342 55.4058 6.35221C55.2235 6.421 55.0576 6.52718 54.9188 6.66392C54.8048 6.79131 54.7194 6.94169 54.6685 7.10491C54.6175 7.26813 54.6022 7.44038 54.6236 7.61002C54.7543 9.01931 56.6734 10.5643 58.413 11.3043C59.119 11.6147 59.8811 11.7777 60.6523 11.7832C61.1932 11.7731 61.7312 11.7033 62.2567 11.5752L62.3455 11.5562C62.377 11.7849 62.3979 12.1037 62.4144 12.3602C62.428 13.6468 62.7193 14.9154 63.2685 16.0791L63.046 16.8249C62.8428 17.5184 62.4985 18.1625 62.0348 18.7168C61.5711 19.2712 60.998 19.7238 60.3513 20.0464L59.9113 20.2431C59.7398 20.1634 59.5608 20.101 59.3769 20.0567C59.0158 19.9551 58.6427 19.9025 58.2676 19.9003C57.173 19.9622 56.1056 20.2652 55.1417 20.7878C53.9012 21.3862 52.9919 21.913 52.2611 22.3364C50.5523 23.3262 49.7727 23.7779 47.3246 23.7779C46.7371 23.7779 46.0651 23.7506 45.2695 23.6945C43.3725 23.5069 41.5234 22.9864 39.807 22.1571C36.7835 20.7746 33.5298 19.9648 30.2111 19.7689C29.9515 19.752 29.689 19.7434 29.4286 19.7434C26.5401 19.7657 23.7413 20.75 21.4747 22.5407C21.3333 22.4233 21.1832 22.3168 21.0257 22.2221C20.1077 21.6959 19.0623 21.4333 18.0047 21.4634C14.2713 21.5965 13.4425 25.34 12.7001 28.7314C12.491 29.898 12.1677 31.0412 11.7348 32.1445C11.4174 32.8049 10.9078 33.354 10.2729 33.7199C9.72932 34.0717 9.08139 34.2262 8.43753 34.1575C6.31958 33.8009 6.4182 31.8661 6.511 30.0938C6.59174 28.7663 6.65879 27.5164 5.98645 26.7927C7.76498 25.202 4.84452 20.4849 1.71946 20.0687C1.67525 20.0672 1.49893 20.0313 1.63927 20.2434C1.72386 20.3648 1.82355 20.4719 1.90841 20.5785C2.63097 21.4773 2.49503 23.2184 2.60324 24.332C2.88693 27.3072 4.57209 27.3201 5.09332 27.2365C5.75767 27.6467 5.69753 28.8022 5.63957 30.048C5.51901 32.1891 5.3902 34.5519 8.28814 35.0252C9.14267 35.1345 10.0084 34.9402 10.7343 34.4762C11.5189 34.0186 12.1468 33.3344 12.5354 32.5134C12.9975 31.3495 13.343 30.1425 13.5666 28.9103C14.2378 25.8567 14.9801 22.4652 18.0322 22.3521C18.9263 22.3165 19.8118 22.5381 20.5838 22.9906C20.6623 23.0371 20.7167 23.0947 20.7867 23.1453C19.7702 24.0474 18.9064 25.108 18.2285 26.286C16.4006 29.535 16.5686 32.4903 16.9784 36.0163C17.0155 36.3349 17.0641 36.7 17.1231 37.0935L16.9918 37.5488C16.2885 39.9897 15.4558 42.2701 13.0278 43.3502C12.9457 43.3876 12.8289 43.4345 12.6927 43.4894C11.6406 43.9139 11.1496 44.166 11.0219 44.5374C10.9219 44.9716 10.9431 45.425 11.0831 45.848L11.1144 45.9836C11.7639 48.6307 11.0364 51.7469 10.6456 53.4211C10.4232 54.3739 10.3559 54.6614 10.4899 54.8892C10.7676 55.357 10.6069 55.5803 10.184 56.0848C9.95613 56.3366 9.76139 56.6165 9.60449 56.9177C9.39375 57.3006 9.28882 57.7327 9.3005 58.1696C9.31218 58.6065 9.44005 59.0324 9.67094 59.4035C10.0241 59.8816 10.4793 60.2751 11.0035 60.5554C11.5277 60.8356 12.1078 60.9956 12.7016 61.0237C13.5049 61.0237 13.584 60.5555 13.5889 60.4121C13.6382 59.1758 13.9668 57.9668 14.5501 56.8757C14.9114 56.341 15.0585 55.6901 14.9623 55.0519C14.6767 53.9901 14.995 50.9647 15.3001 49.2533C15.3691 48.8866 15.4719 48.527 15.6072 48.1792C15.8511 49.1023 16.2965 49.9599 16.9114 50.6904C18.4941 52.7637 19.2535 55.9281 19.6188 57.4488C19.8486 58.4069 19.9129 58.6744 20.2521 58.9009C20.7948 59.2791 20.792 59.2911 20.6813 59.7805C20.3915 60.851 20.5378 61.9929 21.0881 62.9558C21.43 63.6408 22.2533 63.975 23.6043 63.975C24.2458 63.975 27.6276 63.7318 28.2176 62.5757C28.3041 62.4079 28.3423 62.2194 28.328 62.0311C28.3136 61.8428 28.2472 61.6622 28.1363 61.5095C26.4914 59.1829 25.0652 56.7093 23.8758 54.1201C23.0634 52.3884 22.8523 50.9662 23.2208 49.7115C23.3081 49.7428 23.3955 49.7748 23.4817 49.8031C23.422 50.0278 23.4117 50.2628 23.4516 50.4918C23.4915 50.7209 23.5806 50.9385 23.7127 51.1298C23.8449 51.3211 24.017 51.4814 24.2171 51.5998C24.4172 51.7181 24.6406 51.7916 24.8719 51.8153C24.9464 51.8231 25.0212 51.8271 25.096 51.8273C25.5137 51.823 25.9143 51.6612 26.2178 51.3742C26.5212 51.0872 26.7052 50.6963 26.7328 50.2795C26.9888 50.2783 27.2412 50.2681 27.4886 50.2492C27.5004 50.3618 27.5202 50.4733 27.5479 50.583C27.6272 50.9508 27.8318 51.2797 28.1268 51.5133C28.4218 51.7469 28.7888 51.8708 29.165 51.8636C29.4583 51.8672 29.7473 51.7936 30.0031 51.6501C30.2589 51.5066 30.4724 51.2982 30.6222 51.046C30.7572 50.8133 30.8379 50.553 30.8582 50.2847C30.8786 50.0164 30.8379 49.7469 30.7395 49.4965C30.8139 49.4663 30.8881 49.4352 30.9622 49.4032C31.1671 49.6347 31.4174 49.8216 31.6976 49.9522C31.9779 50.0828 32.282 50.1544 32.591 50.1624C33.0285 50.1686 33.4514 50.0051 33.7709 49.7061C34.0904 49.4071 34.2817 48.996 34.3045 48.5591C34.3266 48.3516 34.3044 48.1419 34.2392 47.9437C34.174 47.7456 34.0675 47.5635 33.9266 47.4097C34.0279 47.3088 34.1323 47.201 34.2413 47.0848L34.3089 47.013C34.9053 47.3195 35.5243 47.5799 36.1605 47.7921C38.9293 48.6561 41.8121 49.0995 44.7126 49.1074C44.8337 49.1074 44.9537 49.1065 45.0726 49.1047C47.1641 49.1024 49.248 48.8537 51.2813 48.3637C53.425 47.9165 55.4849 47.1346 57.3853 46.0466C57.8401 45.7581 58.2699 45.4549 58.6494 45.1791C59.0246 46.4434 59.1896 47.7606 59.1377 49.0783C59.0205 51.1098 58.0109 55.87 57.1431 57.3563C56.992 57.6054 56.9147 57.8923 56.9201 58.1837C56.9256 58.475 57.0135 58.7588 57.1738 59.0022C57.2408 59.1515 57.3172 59.3208 57.388 59.5166C57.5315 59.8842 57.5525 60.2883 57.4479 60.6688C57.3802 61.0058 57.3397 61.3476 57.3265 61.691L57.3166 61.9671L57.5734 62.0687C59.1834 62.2806 60.8046 62.3954 62.4284 62.4124L62.89 62.4273L62.8285 61.9694C62.6864 60.9227 62.4031 59.9001 61.9865 58.9294C61.3084 57.2183 60.8605 56.0879 63.3729 50.5896C63.7031 49.2922 63.8977 47.9641 63.9534 46.6265C64.1256 46.6311 64.2954 46.6344 64.4566 46.637C64.7411 46.6415 65.0138 46.6456 65.2648 46.6595C65.5853 46.6796 65.905 46.6895 66.2362 46.6895C66.7495 46.6895 67.1875 46.6649 67.5396 46.645C67.7832 46.6314 67.9936 46.6195 68.16 46.6195C68.2266 46.6188 68.2931 46.6217 68.3594 46.6281C69.4813 48.1324 69.2245 50.3492 69.1001 51.4246C69.0265 52.0601 68.9347 52.8509 69.7331 53.0691L69.7564 53.0755L69.7803 53.0806C69.7955 53.0833 69.8102 53.0878 69.8243 53.0941C69.8855 53.3535 69.9079 53.6205 69.8908 53.8864C69.8838 54.1281 69.8968 54.3699 69.9295 54.6095C70.1552 56.1355 71.3784 57.0564 73.1987 57.0564C74.6795 57.0564 76.4732 56.4137 76.9112 55.3381C77.0176 55.0809 77.0422 54.7972 76.9816 54.5255C76.9211 54.2539 76.7784 54.0075 76.5729 53.8198C74.9399 52.2143 73.8814 48.1158 73.7024 46.3799C73.453 44.0626 72.9839 43.0681 71.8431 42.4347C71.1038 42.0543 70.3008 41.8134 69.4741 41.7241C68.8699 41.6535 68.2785 41.4982 67.7176 41.2627C67.5811 41.1945 67.4549 41.1074 67.3427 41.004C68.9613 39.9394 70.2917 38.4911 71.2155 36.7881C72.1393 35.0851 72.6278 33.1802 72.6376 31.2428C72.6448 30.2483 72.6176 29.4265 72.5937 28.7015C72.4883 27.1252 72.5723 25.5421 72.8439 23.9858C73.2539 21.7338 73.8963 20.7318 75.4996 19.0412L75.6073 18.9243C75.6537 18.8733 75.7188 18.8018 75.7621 18.7612L76.1892 18.6767C76.382 18.79 76.5811 18.8924 76.7854 18.9834C77.2285 19.1721 77.7058 19.2675 78.1874 19.2634C79.0621 19.263 79.9141 18.9847 80.6204 18.4688C80.6265 18.4642 80.6303 18.4588 80.6364 18.4542L80.8632 18.5248C81.1763 18.6192 81.5018 18.6657 81.8288 18.6628C82.7498 18.6628 83.6491 18.383 84.4076 17.8605C84.771 17.583 85.0653 17.2251 85.2674 16.8149C85.4694 16.4047 85.5738 15.9533 85.5724 15.4961C85.5924 15.2894 85.6135 15.0757 85.6561 14.8517L85.7978 14.1026C86.238 13.624 86.5645 13.0524 86.753 12.4301C86.9585 11.7221 86.8913 10.9628 86.5646 10.3019C86.2379 9.64093 85.6755 9.12638 84.9882 8.85962ZM33.4196 48.4983C33.4124 48.7111 33.3212 48.9124 33.1659 49.0581C33.0106 49.2038 32.8039 49.282 32.5911 49.2756C32.3236 49.249 32.0668 49.1574 31.8429 49.0088C31.619 48.8602 31.4349 48.659 31.3066 48.4229C31.2821 48.38 31.2538 48.3394 31.222 48.3015C30.6827 48.5771 30.12 48.8046 29.5407 48.9814C29.7582 49.5218 30.1836 50.04 29.8527 50.6053C29.7807 50.722 29.6792 50.8178 29.5585 50.883C29.4378 50.9482 29.3021 50.9806 29.165 50.9768C28.988 50.9848 28.814 50.9283 28.6754 50.8179C28.5367 50.7075 28.4427 50.5507 28.4109 50.3763C28.3581 50.1968 28.3664 49.9604 28.301 49.7213C28.2626 49.5572 28.2235 49.4078 28.1837 49.2732C27.6855 49.3547 27.1814 49.3947 26.6765 49.3928C26.4601 49.3928 26.2462 49.3862 26.0347 49.3742C25.8002 50.0021 25.9331 50.9405 25.0961 50.9405C25.0571 50.9405 25.0164 50.9384 24.973 50.9343C24.825 50.9162 24.6855 50.8551 24.5717 50.7586C24.458 50.6622 24.375 50.5345 24.3329 50.3914C24.2908 50.2484 24.2915 50.0961 24.335 49.9534C24.3784 49.8107 24.4626 49.6839 24.5773 49.5885C24.6706 49.4836 24.7406 49.36 24.7824 49.2259C24.3673 49.1452 23.9592 49.0322 23.5617 48.8881C23.9746 48.1538 24.5328 47.5114 25.2023 47.0001C26.03 46.3862 26.9031 45.836 27.8141 45.3543C28.3021 45.0772 28.8069 44.7907 29.3001 44.4915C29.4649 44.3892 29.6315 44.2838 29.7999 44.1753L30.063 44.3325C30.4385 44.5568 30.8628 44.8535 31.3115 45.1676C31.9481 45.6131 32.6677 46.1129 33.4886 46.5852C33.2084 46.8847 32.9065 47.1631 32.5853 47.418C32.9247 47.8592 33.4715 47.8786 33.4196 48.4983ZM83.8529 17.1685C83.2507 17.5615 82.5479 17.7724 81.8288 17.7759C81.6601 17.7697 81.4924 17.7463 81.3284 17.7061C81.5159 17.4228 81.6846 17.1276 81.8335 16.8223C82.2171 16.0708 82.466 15.6369 83.1138 15.4588C83.6796 15.3173 84.2298 15.1197 84.7564 14.8692C84.6111 15.8201 84.7542 16.4499 83.8529 17.1685ZM85.9107 12.1521C85.3798 13.7607 84.448 14.1714 82.879 14.6037C81.1159 15.0883 81.1985 16.9111 80.0882 17.7593C79.5353 18.1599 78.8702 18.3759 78.1874 18.3764C77.8293 18.3801 77.4742 18.3105 77.1438 18.1721C76.4474 17.8472 75.8124 17.404 75.2673 16.8623C74.8357 16.4811 74.4937 16.0091 74.2659 15.4802C74.1388 15.1216 74.5106 14.4403 74.406 14.4403C74.3448 14.4403 74.119 14.6758 73.5308 15.3504C73.1257 15.8162 72.6525 16.4206 72.8582 16.4206C73.1359 16.3293 73.3922 16.1827 73.6115 15.9895C73.6281 15.9777 73.6478 15.9712 73.6681 15.9709C73.8598 15.9709 74.074 16.5981 74.9083 17.3822C75.0993 17.5682 75.3006 17.7433 75.5111 17.9068C75.2577 17.9569 75.0714 18.2018 74.8561 18.4309C73.1188 20.2628 72.4122 21.4065 71.9706 23.8321C71.4345 26.8821 71.7953 28.1835 71.7476 31.5438L71.5394 31.8726C70.8764 32.0689 69.7861 31.4544 68.9515 30.5581C68.0298 29.5683 66.5592 30.5597 66.2054 31.9391C65.8517 33.3185 67.5056 33.2904 68.8927 34.6448C69.0921 34.8471 69.2404 35.0941 69.3253 35.3652C69.4682 35.9813 69.4685 36.6219 69.3259 37.2381C69.1834 37.8543 68.902 38.4298 68.503 38.9206C68.439 39.0034 68.3677 39.0803 68.2899 39.1504C67.8437 39.5777 67.3531 39.9562 66.8267 40.2794C66.3525 39.3017 66.05 38.2496 65.9325 37.1693L65.9314 37.17C65.3615 38.6292 65.5955 41.1973 67.3254 42.058C68.6195 42.696 70.2387 42.517 71.4125 43.2099C72.1815 43.6368 72.5869 44.3023 72.8203 46.4708C73.1219 48.8067 73.8527 51.0667 74.9759 53.1369C73.6279 53.6046 72.1933 53.7685 70.7745 53.6171C70.763 53.0081 70.6732 52.3654 69.9669 52.2136C69.7178 52.1455 70.902 48.3999 68.9902 45.9939C68.8266 45.7875 68.5607 45.7327 68.16 45.7327C67.7072 45.7327 67.0818 45.8026 66.2362 45.8026C65.9539 45.8026 65.6469 45.7948 65.314 45.774C63.8076 45.6907 61.5499 45.9357 60.5329 44.5826C59.8498 43.4042 59.7202 40.396 59.573 38.7187L59.5719 38.7125C59.3482 39.7064 59.2233 40.7201 59.199 41.7386C59.1998 42.3587 59.242 42.9781 59.3253 43.5926C59.0946 43.7404 58.6582 44.0747 58.1328 44.4566C58.0474 44.5132 57.9568 44.5699 57.8887 44.6117C57.776 44.6787 57.6595 44.739 57.5399 44.7926C57.3223 44.9045 57.0899 44.9851 56.8498 45.0319C56.6071 45.078 56.3559 45.0309 56.1464 44.9C55.9954 44.7663 55.8719 44.6044 55.7828 44.4235C55.5037 43.7442 55.1531 43.0966 54.737 42.4915C53.8183 41.4148 53.1158 42.8252 52.8689 43.6428C52.6223 44.4605 53.1469 44.3922 53.6659 45.1067C53.7229 45.1979 53.7599 45.3001 53.7745 45.4067C53.789 45.5132 53.7807 45.6216 53.7502 45.7248C53.6761 45.9636 53.5507 46.1834 53.3828 46.3688C53.2149 46.5542 53.0086 46.7007 52.7783 46.798C52.362 46.9971 51.9301 47.1618 51.4869 47.2905C50.97 47.4643 50.4435 47.6081 49.91 47.7214C49.2794 47.8441 48.6357 47.8866 47.9944 47.8478C47.859 47.8477 47.725 47.8193 47.6012 47.7646C47.4938 47.7062 47.4074 47.6158 47.354 47.5059C47.3175 47.4136 47.2906 47.3177 47.2735 47.2199C47.3087 46.2064 48.0213 44.6496 47.6511 43.5872C47.0988 42.0016 46.1928 43.0132 45.7894 42.1288C45.3859 41.2445 46.6751 40.4641 47.6155 39.7146C48.5555 38.9652 48.5849 36.9219 47.0714 36.672C45.5579 36.4222 43.0911 38.5093 42.8585 40.154C42.6259 41.7986 41.8564 42.641 40.857 42.6054C39.8579 42.5698 41.2124 41.1827 38.477 42.2596C37.005 42.839 36.7737 44.4013 36.8709 45.7246C36.8707 45.7274 36.8671 45.7279 36.8674 45.7309C36.91 45.9789 36.9084 46.2325 36.8627 46.4799C36.8252 46.5633 36.7664 46.6353 36.6921 46.6886C36.6178 46.7418 36.5308 46.7745 36.4398 46.7832C36.1807 46.8108 35.9188 46.7729 35.6782 46.6728C33.4235 45.7682 31.8248 44.3519 30.5179 43.5712C32.2794 42.4369 33.7248 40.8748 34.7192 39.0307C35.7295 37.3216 36.2018 35.3478 36.0745 33.3665L36.0748 33.3633C36.124 31.496 34.1974 30.5365 33.555 30.2526C32.9127 29.9687 31.9432 30.3256 31.2995 31.2981C30.6557 32.2707 31.4343 32.3953 30.3965 33.4457C29.3583 34.4962 28.6245 30.6857 28.1123 29.1884C27.6002 27.6912 27.2992 27.5935 26.4412 27.2585C25.5832 26.9234 24.5251 27.3206 24.7961 29.4182C25.0675 31.5158 25.7727 31.3669 26.5222 32.3071C27.2717 33.2473 26.5686 33.4397 25.3075 34.6561C24.0461 35.8726 24.5641 36.8915 25.4674 38.7072C26.371 40.5228 28.0539 40.5828 28.7039 41.9544C28.8856 42.3302 28.9266 42.7585 28.8197 43.1619C28.7127 43.5653 28.4648 43.917 28.1209 44.1534C26.9147 44.7884 25.7548 45.5078 24.6501 46.3063C21.8936 48.5014 21.4893 51.1207 23.0706 54.4915C23.9287 56.349 24.9029 58.1508 25.9872 59.886C23.4266 60.7912 22.1127 60.4705 21.5118 60.1325C21.6673 59.4083 21.8743 58.9503 20.7497 58.1669C20.5328 58.026 19.8934 53.1353 17.6178 50.1541C16.5434 48.7397 15.9958 47.5069 16.9139 46.6519C17.7605 45.9337 18.3867 44.9907 18.7203 43.9318C19.0539 42.873 19.0813 41.7413 18.7993 40.6676C18.3547 39.1119 18.0403 37.5219 17.8592 35.9141C17.4744 32.6008 17.2789 29.7825 19.0009 26.722C19.9786 25.0378 21.3457 23.6123 22.9875 22.5649C24.6294 21.5176 26.4983 20.8788 28.4378 20.7022L28.5191 20.6989C28.6372 20.6947 28.755 20.6912 28.8731 20.6895C29.0079 20.6841 29.1429 20.6909 29.2765 20.7098C29.5138 20.7591 29.7429 20.8416 29.9571 20.9548C30.5367 21.2646 30.9867 21.7712 31.2259 22.3834C31.6106 23.789 31.088 23.8139 31.5766 24.7447C32.0654 25.6757 33.3999 26.6367 34.3238 26.0607C35.2477 25.4847 34.8272 25.0782 35.7736 24.155C36.2297 23.7022 36.7559 23.326 37.3318 23.0409C37.6863 22.881 38.0703 22.7971 38.4592 22.7947C38.8481 22.7922 39.2332 22.8713 39.5896 23.0268C40.1553 23.2613 40.7057 23.487 41.2651 23.6915C41.6255 23.8274 41.9519 24.0401 42.2219 24.3147C42.4919 24.5893 42.699 24.9194 42.8289 25.2819C43.0667 25.927 43.1802 26.5884 42.8517 26.9304C42.0776 27.7413 41.4419 28.6737 40.9699 29.6906C40.7139 30.7689 41.1984 31.8202 42.1602 31.6855C42.5613 31.6822 42.95 31.5461 43.2657 31.2986C43.5814 31.0511 43.8063 30.706 43.9052 30.3173C44.0634 29.5399 44.0914 28.758 44.909 29.0047C45.7266 29.2514 45.2707 29.844 46.0649 30.7423C46.8595 31.6406 47.6957 32.5839 49.0085 32.3697C50.3209 32.1555 51.0485 31.268 50.6467 30.3402C50.2449 29.4124 49.3282 29.5019 48.8555 28.119C48.3829 26.7362 49.4528 25.9478 50.9633 25.0882C52.1285 24.3471 53.1666 23.4228 54.0376 22.3512C54.4756 22.113 54.9609 21.8596 55.5233 21.5883C56.3677 21.1217 57.305 20.848 58.2678 20.7871C58.5738 20.7901 58.8781 20.8346 59.1721 20.9195C59.5879 21.0715 59.9919 21.254 60.3808 21.4657C61.0177 21.7651 61.7067 21.9376 62.4095 21.9738C62.522 21.9743 62.6344 21.9662 62.7457 21.9495C62.0316 21.6578 61.3503 21.2912 60.7134 20.8561C61.4761 20.4804 62.1526 19.9507 62.7004 19.3005C63.2482 18.6503 63.6553 17.8936 63.8961 17.0782C64.6741 18.2277 66.6374 19.023 68.4363 19.023C68.9867 19.0617 69.5387 18.9763 70.0516 18.7731C70.5646 18.5698 71.0253 18.254 71.3999 17.849C70.6744 18.2128 69.8721 18.3967 69.0605 18.3855C68.5775 18.3849 68.0965 18.3235 67.6289 18.2027C61.5282 16.6298 64.2558 10.6091 62.6352 10.6091C62.5894 10.6093 62.5438 10.6135 62.4987 10.6216C61.8938 10.7738 61.2754 10.8659 60.6524 10.8965C60.0004 10.8911 59.3564 10.7522 58.7601 10.4883C57.1277 9.79389 55.5925 8.45181 55.5068 7.53137C55.4796 7.22604 55.6634 7.15128 55.9773 7.15128C56.2736 7.15128 56.6855 7.21795 57.1456 7.21994C57.9903 7.24409 58.8344 7.15477 59.6554 6.95437C60.2098 6.73358 60.797 6.60648 61.393 6.57826C61.7698 6.57853 62.1436 6.64413 62.4979 6.77215C62.7751 6.90472 63.0663 7.00593 63.366 7.0739L63.3789 7.07255C64.8142 6.28642 66.3169 5.63033 67.8692 5.11214C69.0154 4.79379 70.1982 4.62584 71.3878 4.61251C71.9347 4.61174 72.4809 4.65377 73.0213 4.73823C73.0801 4.7551 73.154 4.7578 73.2421 4.77572C73.7254 4.86549 74.2147 4.9199 74.7059 4.9385C75.0465 4.9385 75.3049 4.8846 75.4038 4.73445C75.4657 4.63138 75.5497 4.54339 75.6498 4.47684C75.958 4.26833 76.3055 4.12467 76.6709 4.05459C77.5684 3.86084 77.97 2.96848 78.224 2.96855C78.2696 2.96855 78.3105 2.99732 78.3487 3.06392C78.9045 4.07506 78.0592 6.61947 76.4314 7.03492C76.3753 7.05473 76.3202 7.07744 76.2664 7.10296C75.9409 6.92555 75.3755 5.77181 75.281 5.77181C75.2656 5.77181 75.2629 5.8014 75.2744 5.8691C75.3603 6.43003 75.5632 6.96662 75.8699 7.44404C76.1767 7.92146 76.5804 8.32903 77.0549 8.64029C78.0031 9.26556 79.0943 9.64045 80.2266 9.72997C81.6591 9.81065 80.3565 10.2377 79.9844 10.2984C79.0037 10.2994 78.0239 10.3533 77.0491 10.46C75.083 10.8529 75.0931 12.5119 75.3488 12.5119C75.3955 12.5119 75.4501 12.4566 75.5029 12.3283C75.9538 11.2939 76.9362 11.1366 77.8592 10.9772C78.296 10.8948 78.7396 10.8533 79.1841 10.8531C79.3598 10.8531 79.523 10.859 79.6831 10.8647C79.7388 10.8667 79.7965 10.8678 79.8558 10.8678C80.2352 10.8888 80.6132 10.8062 80.9491 10.6287C81.8269 10.083 81.7261 9.59112 82.9119 9.52981C83.0177 9.52624 83.1251 9.52431 83.2327 9.52431C83.7264 9.51035 84.2194 9.56855 84.6962 9.69707C85.1657 9.88457 85.5494 10.2389 85.7736 10.6921C85.9977 11.1452 86.0466 11.6652 85.9107 12.1521Z" fill="black"/>
<path d="M55.356 26.8108C53.219 27.4305 55.1072 29.6728 55.1802 31.2848C55.253 32.8968 54.6015 32.8736 53.1811 33.4754C51.7607 34.0772 52.6621 34.8053 52.6621 34.8053C54.7817 35.1419 57.7961 33.553 58.2196 32.5242C58.643 31.4953 58.0147 31.0814 59.9075 29.2351C61.8003 27.3887 57.4932 26.1911 55.356 26.8108Z" fill="black"/>
<path d="M79.6721 12.6754C79.2387 12.6754 78.3261 13.2401 78.4604 14.0318L78.4615 14.0289C78.4869 14.0411 78.5141 14.0491 78.542 14.0526C78.5492 14.0526 78.5564 14.0518 78.5634 14.0503C79.0473 14.0391 78.5892 13.6117 79.4843 13.6117C79.5205 13.6117 79.559 13.6123 79.5999 13.6139C79.6153 13.6144 79.6298 13.6147 79.6444 13.6147C80.3161 13.6147 80.1321 13.0347 79.8531 12.7351C79.8286 12.7134 79.7999 12.6969 79.7688 12.6866C79.7376 12.6763 79.7048 12.6725 79.6721 12.6754Z" fill="black"/>
<path d="M71.1293 7.26669C70.6428 7.28101 70.1681 7.41968 69.7504 7.6695C69.4012 7.87507 69.099 8.15161 68.8633 8.48125C68.7678 8.5999 68.7279 8.71352 68.7963 8.71352C68.8575 8.70151 68.9145 8.67367 68.9616 8.63278C69.5598 8.09265 70.3369 7.79347 71.1428 7.79309C71.3235 7.79359 71.504 7.80501 71.6833 7.82728L71.7008 7.82852C71.8417 7.82852 72.2745 7.6373 72.1221 7.54701C71.8248 7.3606 71.4802 7.26331 71.1293 7.26669Z" fill="black"/>
<path d="M71.4636 8.68604C71.3736 8.6647 71.2811 8.65514 71.1887 8.65761C71.0791 8.65446 70.9702 8.67703 70.8709 8.72352C70.8074 8.76602 70.7544 8.82255 70.7162 8.88875C70.678 8.95495 70.6554 9.02905 70.6504 9.10533C70.6385 9.20876 70.6579 9.31339 70.706 9.40572C70.7541 9.49805 70.8288 9.57385 70.9204 9.62335C70.7517 9.66462 70.5737 9.64228 70.4205 9.5606C70.336 9.5096 70.265 9.43898 70.2136 9.35472C70.1621 9.27046 70.1317 9.17504 70.125 9.07655C70.1238 8.98909 70.1456 8.90284 70.1882 8.82643C70.0672 8.88185 69.9547 8.95391 69.8537 9.04051C69.7312 9.16421 69.6526 9.32459 69.6298 9.49716C69.5562 10.0124 70.0816 10.3061 70.6649 10.3061C70.9672 10.3296 71.2684 10.2493 71.5188 10.0785C71.7693 9.90773 71.954 9.65666 72.0425 9.36674C72.1543 8.87883 71.4636 8.68604 71.4636 8.68604Z" fill="black"/>
</g>
<path d="M301.183 34.0337C301.387 34.0337 301.545 34.128 301.655 34.3167C301.78 34.5053 301.843 34.7647 301.843 35.0948C301.843 35.6607 301.71 36.148 301.442 36.5567C301.002 37.2326 300.421 37.7592 299.698 38.1364C298.99 38.5137 298.141 38.7023 297.151 38.7023C295.642 38.7023 294.471 38.2543 293.638 37.3583C292.805 36.4466 292.388 35.2205 292.388 33.68C292.388 32.5954 292.616 31.5894 293.072 30.6619C293.528 29.7188 294.157 28.9721 294.958 28.4219C295.776 27.8718 296.695 27.5967 297.717 27.5967C298.629 27.5967 299.36 27.8718 299.91 28.4219C300.46 28.9564 300.735 29.6873 300.735 30.6148C300.735 31.6994 300.342 32.6347 299.556 33.4207C298.786 34.1909 297.466 34.804 295.595 35.2598C295.972 35.9829 296.609 36.3444 297.505 36.3444C298.149 36.3444 298.676 36.1951 299.085 35.8964C299.509 35.5978 299.996 35.0948 300.546 34.3874C300.735 34.1516 300.947 34.0337 301.183 34.0337ZM297.316 29.9074C296.735 29.9074 296.239 30.2454 295.831 30.9213C295.438 31.5972 295.241 32.4146 295.241 33.3735V33.4207C296.169 33.2006 296.9 32.8705 297.434 32.4303C297.969 31.9902 298.236 31.4793 298.236 30.8977C298.236 30.5991 298.149 30.3633 297.976 30.1904C297.819 30.0017 297.599 29.9074 297.316 29.9074Z" fill="black"/>
<path d="M289.278 26.0404C288.618 26.0404 288.123 25.891 287.793 25.5924C287.462 25.278 287.297 24.8457 287.297 24.2955C287.297 23.7454 287.51 23.2895 287.934 22.928C288.374 22.5507 288.916 22.3621 289.561 22.3621C290.143 22.3621 290.614 22.5035 290.976 22.7865C291.337 23.0694 291.518 23.4703 291.518 23.989C291.518 24.6178 291.314 25.1208 290.905 25.4981C290.496 25.8596 289.954 26.0404 289.278 26.0404ZM293.522 33.3734C293.727 33.3734 293.884 33.4756 293.994 33.6799C294.12 33.8686 294.182 34.1122 294.182 34.4109C294.182 34.7724 294.127 35.0554 294.017 35.2597C293.907 35.4641 293.734 35.6448 293.499 35.802C292.398 36.5251 290.929 37.5233 289.089 38.7965C288.476 42.0661 287.682 44.6362 286.708 46.5068C285.733 48.3774 284.491 49.3127 282.982 49.3127C282.165 49.3127 281.513 49.0612 281.025 48.5582C280.522 48.0709 280.271 47.4264 280.271 46.6247C280.271 45.5087 280.703 44.314 281.568 43.0407C282.432 41.7832 284.059 40.227 286.449 38.3721L286.614 37.1696C286.834 35.6605 287.007 34.1751 287.132 32.7132C287.227 31.8643 287.376 30.5989 287.58 28.917C287.643 28.4611 287.816 28.131 288.099 27.9267C288.382 27.7066 288.814 27.5966 289.396 27.5966C289.867 27.5966 290.174 27.6673 290.315 27.8088C290.473 27.9503 290.551 28.1467 290.551 28.3983C290.551 29.1213 290.292 31.1177 289.773 34.3873L289.537 36.0142C290.795 35.0711 291.942 34.2537 292.98 33.562C293.184 33.4363 293.365 33.3734 293.522 33.3734ZM283.242 47.0256C283.651 47.0256 284.099 46.5618 284.586 45.6344C285.073 44.707 285.529 43.2136 285.953 41.1544C284.759 42.1762 283.902 43.0958 283.383 43.9132C282.849 44.7463 282.582 45.4772 282.582 46.106C282.582 46.719 282.802 47.0256 283.242 47.0256Z" fill="black"/>
<path d="M288.015 33.3263C288.219 33.3263 288.376 33.4206 288.486 33.6092C288.612 33.7978 288.675 34.0572 288.675 34.3873C288.675 35.0161 288.526 35.5034 288.227 35.8492C287.551 36.6823 286.812 37.3661 286.01 37.9006C285.209 38.435 284.289 38.7023 283.252 38.7023C280.045 38.7023 278.442 36.4465 278.442 31.9351C278.442 31.2435 278.465 30.544 278.512 29.8366H277.593C277.121 29.8366 276.799 29.7501 276.626 29.5772C276.469 29.4043 276.39 29.1292 276.39 28.752C276.39 27.8717 276.744 27.4316 277.451 27.4316H278.795C279.063 25.7024 279.471 24.1226 280.021 22.6922C280.572 21.2617 281.232 20.1221 282.002 19.2733C282.788 18.4244 283.629 18 284.525 18C285.185 18 285.704 18.2908 286.081 18.8724C286.458 19.454 286.647 20.185 286.647 21.0653C286.647 23.5017 285.625 25.6238 283.582 27.4316H286.223C286.474 27.4316 286.655 27.4866 286.765 27.5966C286.875 27.7066 286.93 27.911 286.93 28.2097C286.93 29.2943 286.042 29.8366 284.266 29.8366H281.389C281.358 30.6226 281.342 31.2356 281.342 31.6757C281.342 33.3106 281.531 34.4581 281.908 35.1183C282.301 35.7785 282.914 36.1086 283.747 36.1086C284.423 36.1086 285.02 35.9042 285.539 35.4955C286.058 35.0868 286.671 34.4738 287.378 33.6564C287.567 33.4363 287.779 33.3263 288.015 33.3263ZM283.888 20.2636C283.653 20.2636 283.385 20.5622 283.087 21.1596C282.804 21.7412 282.529 22.5586 282.261 23.6118C282.01 24.6492 281.798 25.8046 281.625 27.0779C282.552 26.2762 283.244 25.3802 283.7 24.3899C284.171 23.3838 284.407 22.4721 284.407 21.6547C284.407 20.7273 284.234 20.2636 283.888 20.2636Z" fill="black"/>
<path d="M271.822 39.2209C271.004 39.2209 270.376 39.0323 269.935 38.655C269.511 38.2778 269.299 37.8533 269.299 37.3818C269.299 36.9731 269.448 36.6194 269.747 36.3207C270.045 36.022 270.486 35.8727 271.067 35.8727C271.272 35.8727 271.507 35.8963 271.775 35.9434C272.057 35.9749 272.27 35.9985 272.411 36.0142C272.395 35.6055 272.301 35.2204 272.128 34.8588C271.971 34.4973 271.767 34.1515 271.515 33.8214C271.264 33.4755 271.028 33.1769 270.808 32.9254C270.32 33.8528 269.833 34.623 269.346 35.2361C268.874 35.8491 268.356 36.4307 267.79 36.9809C267.507 37.2639 267.208 37.4053 266.894 37.4053C266.642 37.4053 266.438 37.3189 266.281 37.146C266.123 36.9573 266.045 36.7294 266.045 36.4622C266.045 36.1478 266.155 35.857 266.375 35.5898L266.681 35.2125C267.546 34.1436 268.198 33.2633 268.639 32.5717C268.906 32.1158 269.22 31.5106 269.582 30.7561C269.943 29.9859 270.297 29.192 270.643 28.3746C270.941 27.683 271.562 27.3372 272.505 27.3372C272.946 27.3372 273.252 27.3765 273.425 27.4551C273.598 27.5337 273.684 27.6594 273.684 27.8323C273.684 27.9266 273.653 28.076 273.59 28.2803C273.527 28.4847 273.441 28.689 273.331 28.8934C273.048 29.4593 272.906 29.9387 272.906 30.3317C272.906 30.5675 272.985 30.8268 273.142 31.1098C273.315 31.3927 273.574 31.7464 273.92 32.1708C274.423 32.831 274.8 33.3969 275.052 33.8685C275.319 34.3244 275.453 34.8274 275.453 35.3776C275.453 35.5347 275.437 35.7548 275.406 36.0378C276.176 35.7391 277.08 34.9453 278.117 33.6563C278.306 33.4362 278.518 33.3262 278.754 33.3262C278.958 33.3262 279.115 33.4205 279.225 33.6091C279.351 33.7978 279.414 34.0571 279.414 34.3872C279.414 34.9846 279.265 35.4719 278.966 35.8491C278.18 36.8237 277.426 37.4918 276.703 37.8533C275.995 38.1992 275.115 38.3878 274.062 38.4192C273.433 38.9537 272.686 39.2209 271.822 39.2209Z" fill="black"/>
<path d="M268.696 33.3263C268.9 33.3263 269.057 33.4207 269.167 33.6093C269.293 33.7979 269.356 34.0573 269.356 34.3874C269.356 35.0162 269.207 35.5035 268.908 35.8493C268.326 36.5567 267.501 37.209 266.432 37.8063C265.379 38.4037 264.247 38.7023 263.037 38.7023C261.386 38.7023 260.105 38.2543 259.193 37.3583C258.282 36.4623 257.826 35.2362 257.826 33.68C257.826 32.5954 258.054 31.5894 258.51 30.6619C258.965 29.7188 259.594 28.9721 260.396 28.4219C261.213 27.8718 262.133 27.5967 263.155 27.5967C264.066 27.5967 264.797 27.8718 265.347 28.4219C265.898 28.9564 266.173 29.6873 266.173 30.6148C266.173 31.6994 265.78 32.6347 264.994 33.4207C264.224 34.1909 262.911 34.804 261.056 35.2598C261.449 35.9829 262.196 36.3444 263.296 36.3444C264.003 36.3444 264.805 36.1008 265.701 35.6135C266.613 35.1105 267.399 34.4581 268.059 33.6565C268.248 33.4364 268.46 33.3263 268.696 33.3263ZM262.754 29.9074C262.172 29.9074 261.677 30.2454 261.268 30.9213C260.875 31.5972 260.679 32.4146 260.679 33.3735V33.4207C261.606 33.2006 262.337 32.8705 262.872 32.4303C263.406 31.9902 263.673 31.4793 263.673 30.8977C263.673 30.5991 263.587 30.3633 263.414 30.1904C263.257 30.0017 263.037 29.9074 262.754 29.9074Z" fill="black"/>
<path d="M259.439 33.3263C259.643 33.3263 259.801 33.4207 259.911 33.6093C260.036 33.7979 260.099 34.0573 260.099 34.3874C260.099 35.0162 259.95 35.5035 259.651 35.8493C259.07 36.5567 258.244 37.209 257.176 37.8063C256.122 38.4037 254.991 38.7023 253.78 38.7023C252.13 38.7023 250.849 38.2543 249.937 37.3583C249.025 36.4623 248.569 35.2362 248.569 33.68C248.569 32.5954 248.797 31.5894 249.253 30.6619C249.709 29.7188 250.338 28.9721 251.139 28.4219C251.957 27.8718 252.876 27.5967 253.898 27.5967C254.81 27.5967 255.541 27.8718 256.091 28.4219C256.641 28.9564 256.916 29.6873 256.916 30.6148C256.916 31.6994 256.523 32.6347 255.737 33.4207C254.967 34.1909 253.654 34.804 251.8 35.2598C252.193 35.9829 252.939 36.3444 254.04 36.3444C254.747 36.3444 255.549 36.1008 256.445 35.6135C257.356 35.1105 258.142 34.4581 258.802 33.6565C258.991 33.4364 259.203 33.3263 259.439 33.3263ZM253.497 29.9074C252.916 29.9074 252.42 30.2454 252.012 30.9213C251.619 31.5972 251.422 32.4146 251.422 33.3735V33.4207C252.35 33.2006 253.081 32.8705 253.615 32.4303C254.15 31.9902 254.417 31.4793 254.417 30.8977C254.417 30.5991 254.33 30.3633 254.157 30.1904C254 30.0017 253.78 29.9074 253.497 29.9074Z" fill="black"/>
<path d="M252.15 19.0375C252.59 19.1003 252.889 19.2339 253.046 19.4383C253.219 19.6426 253.305 19.9099 253.305 20.24C253.305 21.3246 252.723 21.8276 251.56 21.749L250.735 21.6783C249.808 21.5997 248.88 21.5368 247.953 21.4897C247.041 21.4425 246.082 21.4189 245.076 21.4189H244.015C243.826 23.7454 243.63 25.8675 243.426 27.7852L247.481 27.7145C248.063 27.7145 248.448 27.8167 248.636 28.021C248.841 28.2254 248.943 28.5004 248.943 28.8463C248.943 29.3807 248.786 29.8051 248.471 30.1195C248.157 30.4182 247.709 30.5675 247.127 30.5675H243.095L242.954 31.5814C242.624 34.1751 241.917 36.0221 240.832 37.1225C239.763 38.2228 238.285 38.773 236.399 38.773C235.33 38.773 234.348 38.545 233.452 38.0892C232.556 37.6176 231.895 37.0517 231.471 36.3915C231.298 36.1243 231.212 35.802 231.212 35.4248C231.212 35.0475 231.298 34.7174 231.471 34.4345C231.66 34.1515 231.888 34.01 232.155 34.01C232.343 34.01 232.524 34.0729 232.697 34.1987C232.886 34.3244 233.122 34.5681 233.405 34.9296C234.159 35.9199 235.094 36.4151 236.21 36.4151C237.106 36.4151 237.853 36.0535 238.45 35.3305C239.063 34.5917 239.456 33.4363 239.629 31.8644L239.771 30.5675H238.639C238.278 30.5675 237.963 30.4654 237.696 30.261C237.444 30.0567 237.319 29.7658 237.319 29.3886C237.319 28.9013 237.444 28.5319 237.696 28.2804C237.947 28.0131 238.317 27.8795 238.804 27.8795C239.244 27.8795 239.677 27.8717 240.101 27.856C240.29 26.1268 240.494 24.0283 240.714 21.5604C239.016 21.7176 237.822 21.9927 237.13 22.3857C236.438 22.7786 236.093 23.3603 236.093 24.1305C236.093 24.6649 236.25 25.1758 236.564 25.6631C236.658 25.8046 236.706 25.9461 236.706 26.0875C236.706 26.3705 236.548 26.622 236.234 26.8421C235.92 27.0464 235.566 27.1486 235.173 27.1486C234.749 27.1486 234.387 27.0228 234.088 26.7713C233.9 26.6141 233.719 26.2919 233.546 25.8046C233.373 25.3173 233.287 24.775 233.287 24.1777C233.287 22.2285 234.285 20.8137 236.281 19.9335C238.293 19.0532 241.225 18.613 245.076 18.613C247.748 18.613 250.106 18.7545 252.15 19.0375Z" fill="#4B6D14"/>
<path d="M224.874 34.0337C225.078 34.0337 225.236 34.128 225.346 34.3167C225.471 34.5053 225.534 34.7647 225.534 35.0948C225.534 35.6607 225.401 36.148 225.134 36.5567C224.693 37.2326 224.112 37.7592 223.389 38.1364C222.681 38.5137 221.832 38.7023 220.842 38.7023C219.333 38.7023 218.162 38.2543 217.329 37.3583C216.496 36.4466 216.079 35.2205 216.079 33.68C216.079 32.5954 216.307 31.5894 216.763 30.6619C217.219 29.7188 217.848 28.9721 218.649 28.4219C219.467 27.8718 220.386 27.5967 221.408 27.5967C222.32 27.5967 223.051 27.8718 223.601 28.4219C224.151 28.9564 224.426 29.6873 224.426 30.6148C224.426 31.6994 224.033 32.6347 223.247 33.4207C222.477 34.1909 221.157 34.804 219.286 35.2598C219.663 35.9829 220.3 36.3444 221.196 36.3444C221.84 36.3444 222.367 36.1951 222.776 35.8964C223.2 35.5978 223.687 35.0948 224.238 34.3874C224.426 34.1516 224.638 34.0337 224.874 34.0337ZM221.007 29.9074C220.426 29.9074 219.93 30.2454 219.522 30.9213C219.129 31.5972 218.932 32.4146 218.932 33.3735V33.4207C219.86 33.2006 220.591 32.8705 221.125 32.4303C221.66 31.9902 221.927 31.4793 221.927 30.8977C221.927 30.5991 221.84 30.3633 221.667 30.1904C221.51 30.0017 221.29 29.9074 221.007 29.9074Z" fill="black"/>
<path d="M212.969 26.0404C212.309 26.0404 211.814 25.891 211.484 25.5924C211.153 25.278 210.988 24.8457 210.988 24.2955C210.988 23.7454 211.201 23.2895 211.625 22.928C212.065 22.5507 212.607 22.3621 213.252 22.3621C213.834 22.3621 214.305 22.5035 214.667 22.7865C215.028 23.0694 215.209 23.4703 215.209 23.989C215.209 24.6178 215.005 25.1208 214.596 25.4981C214.187 25.8596 213.645 26.0404 212.969 26.0404ZM217.213 33.3734C217.418 33.3734 217.575 33.4756 217.685 33.6799C217.811 33.8686 217.873 34.1122 217.873 34.4109C217.873 34.7724 217.818 35.0554 217.708 35.2597C217.598 35.4641 217.425 35.6448 217.19 35.802C216.089 36.5251 214.62 37.5233 212.78 38.7965C212.167 42.0661 211.374 44.6362 210.399 46.5068C209.424 48.3774 208.183 49.3127 206.673 49.3127C205.856 49.3127 205.204 49.0612 204.716 48.5582C204.213 48.0709 203.962 47.4264 203.962 46.6247C203.962 45.5087 204.394 44.314 205.259 43.0407C206.123 41.7832 207.75 40.227 210.14 38.3721L210.305 37.1696C210.525 35.6605 210.698 34.1751 210.823 32.7132C210.918 31.8643 211.067 30.5989 211.271 28.917C211.334 28.4611 211.507 28.131 211.79 27.9267C212.073 27.7066 212.505 27.5966 213.087 27.5966C213.558 27.5966 213.865 27.6673 214.006 27.8088C214.164 27.9503 214.242 28.1467 214.242 28.3983C214.242 29.1213 213.983 31.1177 213.464 34.3873L213.228 36.0142C214.486 35.0711 215.633 34.2537 216.671 33.562C216.875 33.4363 217.056 33.3734 217.213 33.3734ZM206.933 47.0256C207.342 47.0256 207.79 46.5618 208.277 45.6344C208.764 44.707 209.22 43.2136 209.644 41.1544C208.45 42.1762 207.593 43.0958 207.074 43.9132C206.54 44.7463 206.273 45.4772 206.273 46.106C206.273 46.719 206.493 47.0256 206.933 47.0256Z" fill="black"/>
<path d="M202.767 31.3927C202.767 32.6346 202.476 33.8135 201.894 34.9296C201.329 36.0299 200.566 36.9259 199.607 37.6176C198.664 38.3092 197.65 38.6708 196.566 38.7022C196.361 41.736 195.898 44.2668 195.175 46.2946C194.451 48.3381 193.39 49.3599 191.991 49.3599C191.143 49.3599 190.514 49.0533 190.105 48.4403C189.696 47.8272 189.492 46.9784 189.492 45.8938C189.492 44.3533 189.846 42.5534 190.553 40.4942C191.26 38.4507 192.353 36.195 193.831 33.7271C193.831 31.432 193.815 29.8365 193.783 28.9405C193.768 28.4847 193.948 28.1231 194.326 27.8559C194.703 27.5887 195.175 27.4551 195.74 27.4551C196.071 27.4551 196.306 27.5258 196.448 27.6673C196.605 27.793 196.691 28.0524 196.707 28.4454C196.707 28.8384 196.715 29.1292 196.731 29.3178C197.234 28.689 197.729 28.241 198.216 27.9738C198.703 27.6909 199.222 27.5494 199.772 27.5494C200.653 27.5494 201.368 27.9031 201.918 28.6104C202.484 29.3178 202.767 30.2452 202.767 31.3927ZM196.684 36.4386C197.249 36.3129 197.768 36.0063 198.24 35.5191C198.727 35.016 199.112 34.403 199.395 33.6799C199.678 32.9411 199.82 32.1709 199.82 31.3692C199.82 30.8976 199.725 30.5439 199.537 30.3081C199.348 30.0566 199.096 29.9309 198.782 29.9309C198.216 29.9309 197.532 30.5282 196.731 31.7229C196.715 32.4145 196.707 33.4284 196.707 34.7645C196.707 35.4876 196.699 36.0456 196.684 36.4386ZM192.18 47.0491C192.604 47.0491 192.958 46.1217 193.241 44.2668C193.524 42.4277 193.705 40.1327 193.783 37.3818C193.107 38.9537 192.573 40.4549 192.18 41.8853C191.787 43.3158 191.591 44.5183 191.591 45.4929C191.591 45.9959 191.653 46.3811 191.779 46.6483C191.889 46.9155 192.023 47.0491 192.18 47.0491Z" fill="black"/>
<path d="M194.817 31.3456C195.021 31.3456 195.178 31.4478 195.288 31.6521C195.398 31.8565 195.453 32.1159 195.453 32.4302C195.453 33.1848 195.225 33.6328 194.77 33.7742C193.826 34.1043 192.789 34.293 191.657 34.3401C191.359 35.6606 190.769 36.7216 189.889 37.5233C189.009 38.3092 188.01 38.7022 186.894 38.7022C185.951 38.7022 185.142 38.4743 184.466 38.0184C183.805 37.5626 183.302 36.9574 182.957 36.2029C182.611 35.4483 182.438 34.6309 182.438 33.7507C182.438 32.556 182.666 31.495 183.122 30.5675C183.578 29.6244 184.206 28.8934 185.008 28.3747C185.81 27.8402 186.698 27.573 187.672 27.573C188.867 27.573 189.826 27.9896 190.549 28.8227C191.288 29.6401 191.72 30.654 191.846 31.8644C192.585 31.8172 193.465 31.66 194.487 31.3928C194.612 31.3613 194.722 31.3456 194.817 31.3456ZM187.083 36.2029C187.586 36.2029 188.018 35.9985 188.38 35.5898C188.757 35.1811 189.009 34.5916 189.134 33.8214C188.647 33.4913 188.27 33.059 188.002 32.5246C187.751 31.9901 187.625 31.4242 187.625 30.8269C187.625 30.5754 187.649 30.3239 187.696 30.0724H187.578C186.949 30.0724 186.423 30.3789 185.998 30.9919C185.59 31.5893 185.385 32.4381 185.385 33.5385C185.385 34.403 185.55 35.0632 185.88 35.5191C186.226 35.9749 186.627 36.2029 187.083 36.2029Z" fill="black"/>
<path d="M175.299 34.0337C175.503 34.0337 175.66 34.128 175.77 34.3167C175.896 34.5053 175.959 34.7647 175.959 35.0948C175.959 35.6607 175.825 36.148 175.558 36.5567C175.118 37.2326 174.536 37.7592 173.813 38.1364C173.106 38.5137 172.257 38.7023 171.267 38.7023C169.758 38.7023 168.586 38.2543 167.753 37.3583C166.92 36.4466 166.504 35.2205 166.504 33.68C166.504 32.5954 166.732 31.5894 167.187 30.6619C167.643 29.7188 168.272 28.9721 169.074 28.4219C169.891 27.8718 170.811 27.5967 171.833 27.5967C172.744 27.5967 173.475 27.8718 174.025 28.4219C174.576 28.9564 174.851 29.6873 174.851 30.6148C174.851 31.6994 174.458 32.6347 173.672 33.4207C172.901 34.1909 171.581 34.804 169.71 35.2598C170.088 35.9829 170.724 36.3444 171.62 36.3444C172.265 36.3444 172.791 36.1951 173.2 35.8964C173.625 35.5978 174.112 35.0948 174.662 34.3874C174.851 34.1516 175.063 34.0337 175.299 34.0337ZM171.432 29.9074C170.85 29.9074 170.355 30.2454 169.946 30.9213C169.553 31.5972 169.357 32.4146 169.357 33.3735V33.4207C170.284 33.2006 171.015 32.8705 171.55 32.4303C172.084 31.9902 172.351 31.4793 172.351 30.8977C172.351 30.5991 172.265 30.3633 172.092 30.1904C171.935 30.0017 171.715 29.9074 171.432 29.9074Z" fill="black"/>
<path d="M163.394 26.0404C162.733 26.0404 162.238 25.891 161.908 25.5924C161.578 25.278 161.413 24.8457 161.413 24.2955C161.413 23.7454 161.625 23.2895 162.05 22.928C162.49 22.5507 163.032 22.3621 163.676 22.3621C164.258 22.3621 164.73 22.5035 165.091 22.7865C165.453 23.0694 165.634 23.4703 165.634 23.989C165.634 24.6178 165.429 25.1208 165.02 25.4981C164.612 25.8596 164.069 26.0404 163.394 26.0404ZM167.638 33.3734C167.842 33.3734 167.999 33.4756 168.109 33.6799C168.235 33.8686 168.298 34.1122 168.298 34.4109C168.298 34.7724 168.243 35.0554 168.133 35.2597C168.023 35.4641 167.85 35.6448 167.614 35.802C166.514 36.5251 165.044 37.5233 163.205 38.7965C162.592 42.0661 161.798 44.6362 160.823 46.5068C159.849 48.3774 158.607 49.3127 157.098 49.3127C156.281 49.3127 155.628 49.0612 155.141 48.5582C154.638 48.0709 154.386 47.4264 154.386 46.6247C154.386 45.5087 154.819 44.314 155.683 43.0407C156.548 41.7832 158.175 40.227 160.564 38.3721L160.729 37.1696C160.949 35.6605 161.122 34.1751 161.248 32.7132C161.342 31.8643 161.492 30.5989 161.696 28.917C161.759 28.4611 161.932 28.131 162.215 27.9267C162.498 27.7066 162.93 27.5966 163.511 27.5966C163.983 27.5966 164.29 27.6673 164.431 27.8088C164.588 27.9503 164.667 28.1467 164.667 28.3983C164.667 29.1213 164.407 31.1177 163.889 34.3873L163.653 36.0142C164.91 35.0711 166.058 34.2537 167.095 33.562C167.3 33.4363 167.481 33.3734 167.638 33.3734ZM157.357 47.0256C157.766 47.0256 158.214 46.5618 158.701 45.6344C159.189 44.707 159.645 43.2136 160.069 41.1544C158.874 42.1762 158.018 43.0958 157.499 43.9132C156.964 44.7463 156.697 45.4772 156.697 46.106C156.697 46.719 156.917 47.0256 157.357 47.0256Z" fill="black"/>
<path d="M162.13 33.3263C162.335 33.3263 162.492 33.4206 162.602 33.6092C162.728 33.7978 162.79 34.0572 162.79 34.3873C162.79 35.0161 162.641 35.5034 162.342 35.8492C161.666 36.6823 160.928 37.3661 160.126 37.9006C159.324 38.435 158.405 38.7023 157.367 38.7023C154.161 38.7023 152.557 36.4465 152.557 31.9351C152.557 31.2435 152.581 30.544 152.628 29.8366H151.708C151.237 29.8366 150.915 29.7501 150.742 29.5772C150.584 29.4043 150.506 29.1292 150.506 28.752C150.506 27.8717 150.86 27.4316 151.567 27.4316H152.911C153.178 25.7024 153.587 24.1226 154.137 22.6922C154.687 21.2617 155.347 20.1221 156.118 19.2733C156.904 18.4244 157.745 18 158.641 18C159.301 18 159.819 18.2908 160.197 18.8724C160.574 19.454 160.763 20.185 160.763 21.0653C160.763 23.5017 159.741 25.6238 157.697 27.4316H160.338C160.59 27.4316 160.77 27.4866 160.881 27.5966C160.991 27.7066 161.046 27.911 161.046 28.2097C161.046 29.2943 160.157 29.8366 158.381 29.8366H155.505C155.473 30.6226 155.457 31.2356 155.457 31.6757C155.457 33.3106 155.646 34.4581 156.023 35.1183C156.416 35.7785 157.029 36.1086 157.862 36.1086C158.538 36.1086 159.136 35.9042 159.654 35.4955C160.173 35.0868 160.786 34.4738 161.494 33.6564C161.682 33.4363 161.894 33.3263 162.13 33.3263ZM158.004 20.2636C157.768 20.2636 157.501 20.5622 157.202 21.1596C156.919 21.7412 156.644 22.5586 156.377 23.6118C156.125 24.6492 155.913 25.8046 155.74 27.0779C156.668 26.2762 157.359 25.3802 157.815 24.3899C158.287 23.3838 158.523 22.4721 158.523 21.6547C158.523 20.7273 158.35 20.2636 158.004 20.2636Z" fill="black"/>
<path d="M145.937 39.2209C145.12 39.2209 144.491 39.0323 144.051 38.655C143.626 38.2778 143.414 37.8533 143.414 37.3818C143.414 36.9731 143.564 36.6194 143.862 36.3207C144.161 36.022 144.601 35.8727 145.183 35.8727C145.387 35.8727 145.623 35.8963 145.89 35.9434C146.173 35.9749 146.385 35.9985 146.527 36.0142C146.511 35.6055 146.417 35.2204 146.244 34.8588C146.087 34.4973 145.882 34.1515 145.631 33.8214C145.379 33.4755 145.143 33.1769 144.923 32.9254C144.436 33.8528 143.949 34.623 143.461 35.2361C142.99 35.8491 142.471 36.4307 141.905 36.9809C141.622 37.2639 141.324 37.4053 141.009 37.4053C140.758 37.4053 140.553 37.3189 140.396 37.146C140.239 36.9573 140.16 36.7294 140.16 36.4622C140.16 36.1478 140.27 35.857 140.491 35.5898L140.797 35.2125C141.662 34.1436 142.314 33.2633 142.754 32.5717C143.021 32.1158 143.336 31.5106 143.697 30.7561C144.059 29.9859 144.412 29.192 144.758 28.3746C145.057 27.683 145.678 27.3372 146.621 27.3372C147.061 27.3372 147.368 27.3765 147.541 27.4551C147.713 27.5337 147.8 27.6594 147.8 27.8323C147.8 27.9266 147.769 28.076 147.706 28.2803C147.643 28.4847 147.556 28.689 147.446 28.8934C147.163 29.4593 147.022 29.9387 147.022 30.3317C147.022 30.5675 147.1 30.8268 147.258 31.1098C147.431 31.3927 147.69 31.7464 148.036 32.1708C148.539 32.831 148.916 33.3969 149.168 33.8685C149.435 34.3244 149.568 34.8274 149.568 35.3776C149.568 35.5347 149.553 35.7548 149.521 36.0378C150.291 35.7391 151.195 34.9453 152.233 33.6563C152.421 33.4362 152.634 33.3262 152.869 33.3262C153.074 33.3262 153.231 33.4205 153.341 33.6091C153.467 33.7978 153.53 34.0571 153.53 34.3872C153.53 34.9846 153.38 35.4719 153.082 35.8491C152.296 36.8237 151.541 37.4918 150.818 37.8533C150.111 38.1992 149.23 38.3878 148.177 38.4192C147.548 38.9537 146.802 39.2209 145.937 39.2209Z" fill="black"/>
<path d="M142.811 33.3263C143.016 33.3263 143.173 33.4207 143.283 33.6093C143.409 33.7979 143.471 34.0573 143.471 34.3874C143.471 35.0162 143.322 35.5035 143.023 35.8493C142.442 36.5567 141.617 37.209 140.548 37.8063C139.494 38.4037 138.363 38.7023 137.152 38.7023C135.502 38.7023 134.221 38.2543 133.309 37.3583C132.397 36.4623 131.941 35.2362 131.941 33.68C131.941 32.5954 132.169 31.5894 132.625 30.6619C133.081 29.7188 133.71 28.9721 134.511 28.4219C135.329 27.8718 136.248 27.5967 137.27 27.5967C138.182 27.5967 138.913 27.8718 139.463 28.4219C140.013 28.9564 140.288 29.6873 140.288 30.6148C140.288 31.6994 139.895 32.6347 139.109 33.4207C138.339 34.1909 137.027 34.804 135.172 35.2598C135.565 35.9829 136.311 36.3444 137.412 36.3444C138.119 36.3444 138.921 36.1008 139.817 35.6135C140.728 35.1105 141.514 34.4581 142.175 33.6565C142.363 33.4364 142.575 33.3263 142.811 33.3263ZM136.869 29.9074C136.288 29.9074 135.793 30.2454 135.384 30.9213C134.991 31.5972 134.794 32.4146 134.794 33.3735V33.4207C135.722 33.2006 136.453 32.8705 136.987 32.4303C137.522 31.9902 137.789 31.4793 137.789 30.8977C137.789 30.5991 137.702 30.3633 137.53 30.1904C137.372 30.0017 137.152 29.9074 136.869 29.9074Z" fill="black"/>
<path d="M133.555 33.3263C133.759 33.3263 133.916 33.4207 134.026 33.6093C134.152 33.7979 134.215 34.0573 134.215 34.3874C134.215 35.0162 134.066 35.5035 133.767 35.8493C133.185 36.5567 132.36 37.209 131.291 37.8063C130.238 38.4037 129.106 38.7023 127.896 38.7023C126.245 38.7023 124.964 38.2543 124.052 37.3583C123.141 36.4623 122.685 35.2362 122.685 33.68C122.685 32.5954 122.913 31.5894 123.369 30.6619C123.824 29.7188 124.453 28.9721 125.255 28.4219C126.072 27.8718 126.992 27.5967 128.014 27.5967C128.925 27.5967 129.656 27.8718 130.206 28.4219C130.757 28.9564 131.032 29.6873 131.032 30.6148C131.032 31.6994 130.639 32.6347 129.853 33.4207C129.083 34.1909 127.77 34.804 125.915 35.2598C126.308 35.9829 127.055 36.3444 128.155 36.3444C128.862 36.3444 129.664 36.1008 130.56 35.6135C131.472 35.1105 132.258 34.4581 132.918 33.6565C133.107 33.4364 133.319 33.3263 133.555 33.3263ZM127.613 29.9074C127.031 29.9074 126.536 30.2454 126.127 30.9213C125.734 31.5972 125.538 32.4146 125.538 33.3735V33.4207C126.465 33.2006 127.196 32.8705 127.731 32.4303C128.265 31.9902 128.532 31.4793 128.532 30.8977C128.532 30.5991 128.446 30.3633 128.273 30.1904C128.116 30.0017 127.896 29.9074 127.613 29.9074Z" fill="black"/>
<path d="M123.699 23.4938C123.699 24.8299 123.227 25.9853 122.284 26.9599C121.341 27.9188 119.966 28.6104 118.158 29.0348C119.132 29.302 119.871 29.7422 120.374 30.3552C120.877 30.9526 121.129 31.6442 121.129 32.4302C121.129 33.672 120.736 34.7488 119.95 35.6605C119.18 36.5722 118.048 37.2796 116.554 37.7826C115.061 38.2699 113.261 38.5135 111.155 38.5135C110.369 38.5135 109.74 38.49 109.269 38.4428C109.253 38.8829 109.064 39.213 108.703 39.4331C108.341 39.6532 107.877 39.7632 107.312 39.7632C106.746 39.7632 106.353 39.6375 106.133 39.3859C105.928 39.1344 105.842 38.765 105.873 38.2777C106.015 36.077 106.29 33.7742 106.698 31.3691C107.107 28.9484 107.626 26.6141 108.255 24.3662C108.365 23.9732 108.585 23.6981 108.915 23.5409C109.245 23.3838 109.677 23.3052 110.212 23.3052C111.171 23.3052 111.65 23.5724 111.65 24.1068C111.65 24.3269 111.603 24.5784 111.509 24.8614C111.1 26.0875 110.691 27.7537 110.282 29.8601C109.874 31.9507 109.583 33.9471 109.41 35.8491C110.165 35.912 110.778 35.9434 111.249 35.9434C113.45 35.9434 115.061 35.629 116.083 35.0003C117.12 34.3558 117.639 33.5384 117.639 32.5481C117.639 31.8564 117.34 31.2748 116.743 30.8032C116.161 30.3317 115.179 30.0723 113.796 30.0251C113.481 30.0094 113.261 29.9308 113.136 29.7893C113.01 29.6479 112.947 29.4199 112.947 29.1056C112.947 28.6497 113.041 28.2803 113.23 27.9974C113.418 27.7144 113.764 27.5651 114.267 27.5494C115.383 27.5179 116.389 27.3529 117.285 27.0542C118.197 26.7555 118.912 26.339 119.431 25.8045C119.95 25.2543 120.209 24.6177 120.209 23.8946C120.209 22.9829 119.761 22.2677 118.865 21.749C117.969 21.2145 116.594 20.9473 114.739 20.9473C113.057 20.9473 111.43 21.1673 109.858 21.6075C108.286 22.0319 106.95 22.5742 105.85 23.2344C105.347 23.5331 104.922 23.6824 104.576 23.6824C104.293 23.6824 104.073 23.5881 103.916 23.3995C103.775 23.1951 103.704 22.9436 103.704 22.6449C103.704 22.252 103.783 21.914 103.94 21.6311C104.113 21.3481 104.514 21.0259 105.142 20.6643C106.463 19.9098 108.011 19.3203 109.787 18.8959C111.564 18.4715 113.379 18.2593 115.234 18.2593C118.079 18.2593 120.201 18.7387 121.6 19.6976C122.999 20.6565 123.699 21.9219 123.699 23.4938Z" fill="#4B6D14"/>
<defs>
<clipPath id="clip0_157_362">
<rect width="95.704" height="68.2411" fill="white"/>
</clipPath>
</defs>
</svg>
