<svg width="548" height="391" viewBox="0 0 548 391" fill="none" xmlns="http://www.w3.org/2000/svg">
<g clip-path="url(#clip0_108_1318)">
<path fill-rule="evenodd" clip-rule="evenodd" d="M484.895 53.0164C481.91 52.2035 478.822 51.8289 475.728 51.9042C475.088 51.9042 474.447 51.9158 473.772 51.9392C472.076 51.8863 470.388 52.2053 468.828 52.8738C467.267 53.5423 465.872 54.5441 464.74 55.809C464.096 53.3865 460.632 53.1914 458.722 53.0835C452.727 52.5974 446.949 50.6205 441.913 47.3326C440.101 46.0626 438.462 44.5633 437.036 42.8722C437.263 42.7701 437.387 42.712 437.489 42.6653C440.184 41.7921 442.646 40.3173 444.687 38.3524C446.728 36.3876 448.295 33.9843 449.27 31.3244C450.459 29.01 451.14 26.4691 451.27 23.8706C451.4 21.2722 450.974 18.676 450.022 16.2549C449.748 15.7148 449.332 15.2598 448.818 14.9388C448.304 14.6179 447.713 14.4432 447.107 14.4336C445.462 14.4336 444.399 15.5763 443.17 16.8996C441.767 18.7211 439.827 20.0555 437.624 20.7143C435.217 21.1906 432.931 22.1515 430.906 23.5386L430.579 23.7949C429.953 24.2556 429.415 24.8257 428.991 25.4777C428.343 25.6553 427.67 25.7281 426.999 25.6931C424.365 25.5855 421.741 25.2927 419.149 24.8168C418.855 24.7556 418.583 24.7179 418.072 24.6449L417.766 24.5778C414.545 24.076 411.291 23.8259 408.032 23.8299C401.014 23.9013 394.036 24.8899 387.275 26.7704C378.495 29.6881 369.988 33.3689 361.85 37.7708C360.689 37.4144 359.551 36.9855 358.444 36.4868L358.265 36.391L358.076 36.3212C355.775 35.4943 353.349 35.0697 350.904 35.066C347.668 35.1449 344.47 35.7741 341.445 36.9266C341.007 37.0749 340.6 37.212 340.26 37.3166C335.802 38.384 331.223 38.8607 326.641 38.7345C325.272 38.729 323.983 38.6152 322.832 38.5132C321.753 38.4202 320.778 38.3417 319.95 38.3417C319.191 38.2801 318.427 38.3781 317.707 38.6293C316.987 38.8805 316.328 39.2794 315.772 39.8004C315.36 40.2729 315.055 40.8284 314.877 41.4293C314.699 42.0301 314.652 42.6622 314.739 43.2828C315.37 50.0814 325.468 58.2809 334.869 62.2845C338.589 63.9211 342.604 64.7821 346.667 64.8148C349.581 64.7577 352.48 64.3777 355.31 63.6818C356.125 63.5072 356.908 63.3385 357.659 63.2074C357.807 63.1816 357.957 63.166 358.108 63.1607C358.942 65.5096 359.336 67.9918 359.272 70.4836C359.31 77.7109 360.993 84.8347 364.194 91.3148L364.189 91.3512C364.176 91.6719 364.162 91.9925 364.15 92.3131L362.784 96.8902C361.512 101.201 359.364 105.203 356.474 108.646C353.583 112.088 350.013 114.896 345.986 116.893L342.391 118.501C341.273 117.894 340.084 117.428 338.85 117.115C336.961 116.576 335.008 116.295 333.044 116.279C327.162 116.642 321.431 118.291 316.255 121.11C309.273 124.478 304.123 127.463 299.982 129.862C290.122 135.575 285.173 138.443 270.497 138.443C267.08 138.443 263.181 138.283 258.572 137.96C247.453 136.878 236.612 133.839 226.551 128.983C209.522 121.194 191.197 116.63 172.505 115.522C171.072 115.429 169.638 115.382 168.204 115.382C155.648 115.493 143.339 118.884 132.497 125.218C121.655 131.552 112.656 140.61 106.394 151.493C96.3223 169.397 97.272 185.88 99.5606 205.569C100.623 214.905 102.451 224.138 105.026 233.175C106.519 238.859 106.364 244.85 104.579 250.449C102.795 256.048 99.4548 261.024 94.9488 264.796C86.7233 272.457 95.4118 283.894 98.6847 288.206C108.045 300.47 112.472 318.907 114.6 327.767C115.834 332.913 116.055 333.838 117.15 334.546C121.705 337.719 121.427 338.954 120.681 342.25C119.925 344.994 119.722 347.861 120.085 350.684C120.448 353.507 121.37 356.23 122.796 358.693C124.287 361.68 128.249 363.133 134.917 363.133C141.951 363.133 156.842 360.798 159.027 356.515C159.312 355.975 159.439 355.366 159.395 354.758C159.351 354.149 159.136 353.566 158.776 353.073C149.277 339.629 141.037 325.338 134.161 310.382C128.725 298.794 127.667 289.212 131.098 280.84L132.894 281.509C134.509 282.115 136.079 282.622 137.635 283.041C137.014 283.974 136.623 285.041 136.495 286.155C136.368 287.269 136.506 288.397 136.9 289.446C137.36 290.591 138.125 291.588 139.111 292.328C140.097 293.069 141.267 293.526 142.495 293.648C142.829 293.68 143.143 293.698 143.443 293.698C149.031 293.698 149.962 288.783 150.522 285.848C150.585 285.498 150.652 285.157 150.72 284.829C151.301 284.843 151.885 284.851 152.472 284.852C154.728 284.855 156.981 284.725 159.222 284.462L159.318 284.864C159.453 285.422 159.545 285.989 159.594 286.561C159.643 287.183 159.744 287.799 159.897 288.404C160.181 289.985 161.025 291.41 162.274 292.42C163.523 293.43 165.093 293.957 166.698 293.904C167.925 293.927 169.135 293.626 170.209 293.033C171.282 292.441 172.181 291.576 172.816 290.527C173.539 289.11 173.877 287.528 173.796 285.94C173.714 284.351 173.216 282.812 172.351 281.477C174.133 280.839 175.898 280.112 177.647 279.296C178.605 280.728 179.885 281.915 181.385 282.763C182.885 283.611 184.562 284.096 186.283 284.179C188.134 284.212 189.926 283.525 191.28 282.262C192.635 281 193.446 279.261 193.544 277.412C193.658 276.139 193.396 274.86 192.791 273.734C192.185 272.607 191.263 271.684 190.138 271.076C191.31 270.02 192.522 268.82 193.868 267.387L195.568 265.577C199.376 267.649 203.358 269.382 207.469 270.756C223.04 275.614 239.252 278.106 255.563 278.149C256.244 278.149 256.918 278.146 257.569 278.135C269.349 278.124 281.087 276.725 292.54 273.965C304.516 271.472 316.027 267.113 326.65 261.046C330.54 258.577 334.215 255.851 336.896 253.863C338.425 252.727 339.654 251.813 340.458 251.298L341.613 250.555C342.108 252.485 342.842 254.345 343.798 256.093L343.963 256.346C349.512 263.725 360.015 263.896 368.455 264.031C370.119 264.06 371.711 264.083 373.161 264.164C375.12 264.287 376.923 264.33 378.586 264.33C381.448 264.33 383.917 264.193 385.9 264.08C387.313 264.001 388.535 263.931 389.587 263.931C391.68 263.931 392.163 264.234 392.347 264.464C399.83 273.886 398.24 287.621 397.477 294.222C397.044 297.958 396.785 300.211 399.382 300.918C401.649 301.405 402.016 303.405 402.013 308C401.974 309.226 402.033 310.453 402.191 311.669C403.297 319.132 409.35 323.586 418.386 323.586C425.878 323.586 435.248 320.273 437.257 315.343C437.675 314.341 437.769 313.233 437.527 312.174C437.285 311.116 436.718 310.159 435.906 309.438C425.986 299.687 419.833 275.916 418.74 265.346C417.425 253.097 415.07 247.903 409.462 244.793C405.465 242.755 401.13 241.463 396.67 240.981C392.978 240.547 389.367 239.585 385.947 238.125C383.995 237.075 382.358 235.525 381.202 233.633L383.263 232.407C392.246 226.576 399.635 218.601 404.765 209.2C409.894 199.799 412.602 189.269 412.644 178.56C412.688 172.923 412.534 168.253 412.397 164.136C411.797 154.956 412.288 145.737 413.859 136.673C416.325 123.139 420.15 117.156 429.704 107.084L430.284 106.455C430.875 105.806 431.688 104.918 432.097 104.836L435.763 103.963C437.097 104.803 438.488 105.548 439.927 106.193C442.132 107.126 444.506 107.595 446.9 107.57C451.358 107.57 455.701 106.153 459.301 103.523C459.662 103.248 459.945 102.924 460.268 102.626L462.947 103.462C464.494 103.926 466.102 104.154 467.716 104.137C472.401 104.134 476.979 102.733 480.863 100.113C482.678 98.7376 484.143 96.9523 485.138 94.9031C486.133 92.8539 486.63 90.5987 486.588 88.3212C486.707 87.1243 486.829 85.8375 487.096 84.4165L488.016 79.5628L487.638 79.7386C490.378 77.1556 492.382 73.8903 493.444 70.2774C494.443 66.8524 494.118 63.1774 492.535 59.9805C490.951 56.7836 488.225 54.2981 484.895 53.0164Z" fill="white"/>
<path fill-rule="evenodd" clip-rule="evenodd" d="M404.845 361.131L409.261 350.277L397.893 356.348L399.546 350.277L393.965 355.108V340.329L387.97 354.98L378.67 349.733L381.954 357.671C345.725 352.858 309.232 350.303 272.686 350.02L277.486 344.01L266.823 347.929L266.4 335.433L259.085 346.576L241.358 339.82L245.496 350.151C244.768 350.166 244.022 350.164 243.296 350.18C234.103 350.385 225.119 350.707 216.214 351.12L219.93 339.024L204.812 346.56V339.956L198.512 346.56L190.113 328.216L188.433 348.714L176.883 344.615L184.992 353.096C166.51 354.611 148.118 356.74 129.122 359.724C85.4455 366.901 42.3058 377.032 6.10352e-05 390.047C1.93398 390.369 137.162 358.274 262.231 358.591C351.105 358.885 410.135 364.927 503.396 386.859C508.093 387.957 507.214 386.488 507.985 386.261C474.327 375.158 439.838 366.755 404.845 361.131Z" fill="black"/>
<path fill-rule="evenodd" clip-rule="evenodd" d="M545.065 93.8649C544.728 92.6668 544.039 91.5979 543.086 90.7973C542.133 89.9967 540.961 89.5015 539.723 89.3762C540.57 89.2407 541.398 89.0077 542.191 88.682C542.98 88.2122 543.606 87.5119 543.986 86.6753C544.365 85.8387 544.479 84.9061 544.312 84.0029C544.204 83.0575 543.779 82.1765 543.106 81.5038C542.434 80.8311 541.552 80.4064 540.607 80.2991C540.384 80.2646 540.158 80.247 539.932 80.2465C539.131 80.2822 538.349 80.5042 537.649 80.8949C536.948 81.2857 536.349 81.8344 535.898 82.4975C536.043 81.7383 536.121 80.9674 536.129 80.1944C535.945 78.8202 535.269 77.5593 534.226 76.6462C533.183 75.733 531.843 75.2297 530.457 75.2297C529.622 75.2377 528.803 75.4522 528.071 75.8541C527.34 76.256 526.719 76.8327 526.264 77.5329C523.706 81.1868 526.908 85.5786 529.137 87.9669C527.006 86.6216 524.593 85.787 522.086 85.5283C521.03 85.6303 520.026 86.0373 519.197 86.6995C518.367 87.3618 517.749 88.2509 517.416 89.2584C517.049 90.233 517.005 91.2994 517.29 92.301C517.574 93.3026 518.172 94.1865 518.997 94.8228C519.922 95.5979 521.095 96.0144 522.302 95.9961C524.307 95.8543 526.231 95.1455 527.848 93.9523C526.952 95.0371 526.247 96.2668 525.764 97.5886C525.586 98.247 525.566 98.9378 525.704 99.6054C525.843 100.273 526.136 100.899 526.561 101.432C526.994 102.071 527.572 102.597 528.248 102.969C528.924 103.341 529.678 103.548 530.449 103.572C531.451 103.561 532.422 103.223 533.215 102.611C534.017 101.964 534.614 101.097 534.934 100.117C535.253 99.137 535.281 98.0852 535.014 97.0894C535.489 97.7816 536.032 98.4249 536.634 99.0096C537.47 99.7377 538.553 100.12 539.661 100.078C540.506 100.086 541.344 99.9097 542.115 99.5624C542.886 99.215 543.573 98.7046 544.128 98.0662C544.597 97.4851 544.925 96.8037 545.088 96.075C545.25 95.3464 545.242 94.5901 545.065 93.8649Z" fill="white"/>
<path d="M543.704 89.3955C544.5 88.7176 545.109 87.8474 545.474 86.8676C545.838 85.8878 545.946 84.831 545.787 83.7978C545.634 82.5355 545.063 81.3606 544.166 80.4595C543.269 79.5585 542.096 78.983 540.835 78.8245C540.537 78.7781 540.236 78.7547 539.935 78.7546C539.053 78.7643 538.191 79.0186 537.446 79.4892C537.104 77.8805 536.227 76.4354 534.957 75.3906C533.687 74.3458 532.1 73.7632 530.456 73.7383C529.381 73.7436 528.324 74.015 527.379 74.528C526.434 75.0411 525.631 75.78 525.041 76.6788C524.423 77.5592 524.021 78.5736 523.869 79.6389C523.718 80.7043 523.82 81.7905 524.169 82.8086C511.399 77.9382 497.453 77.0471 484.167 80.2525L485.046 83.1C496.61 80.3183 508.72 80.8 520.026 84.4916C519.102 84.8899 518.269 85.4733 517.579 86.2058C516.888 86.9383 516.355 87.8044 516.012 88.7507C515.534 90.0131 515.474 91.3955 515.839 92.695C516.205 93.9944 516.977 95.1424 518.044 95.9703C519.239 96.9635 520.748 97.5006 522.302 97.4861C522.999 97.476 523.69 97.3608 524.352 97.1443C524.104 98.0213 524.064 98.9445 524.237 99.8396C524.41 100.735 524.79 101.577 525.348 102.298C525.919 103.13 526.679 103.814 527.566 104.294C528.453 104.775 529.441 105.038 530.449 105.063C531.767 105.048 533.045 104.61 534.096 103.815C535.18 102.989 535.942 101.809 536.248 100.48C537.246 101.185 538.438 101.565 539.661 101.567C540.728 101.579 541.785 101.356 542.756 100.915C543.728 100.473 544.591 99.8231 545.283 99.0111C545.887 98.2556 546.313 97.3735 546.528 96.4305C546.743 95.4875 546.743 94.5081 546.527 93.5653C546.172 91.8577 545.158 90.3592 543.704 89.3955ZM539.935 81.7363C540.084 81.7366 540.233 81.7482 540.381 81.771C540.975 81.8868 541.523 82.1749 541.955 82.5993C542.387 83.0237 542.684 83.5658 542.811 84.1581C542.937 84.7504 542.886 85.3667 542.665 85.9304C542.444 86.4942 542.062 86.9804 541.566 87.3286C539.762 88.0291 537.837 88.3642 535.903 88.3144C535.253 88.3144 534.841 88.2839 534.841 88.2839C534.841 88.2839 536.43 81.7371 539.935 81.7363ZM527.484 78.3883C527.8 77.8833 528.237 77.4658 528.756 77.1742C529.276 76.8826 529.86 76.7263 530.456 76.7197C531.448 76.7249 532.407 77.0742 533.17 77.708C533.933 78.3418 534.453 79.2208 534.64 80.195C534.53 83.0139 533.561 85.7318 531.864 87.9848C531.864 87.9848 524.608 82.4975 527.484 78.3883ZM522.302 94.5046C521.445 94.5211 520.61 94.228 519.951 93.6789C519.405 93.1828 519.014 92.5402 518.824 91.8278C518.633 91.1155 518.652 90.3633 518.877 89.6612C519.102 88.959 519.524 88.3364 520.094 87.8677C520.663 87.399 521.355 87.1039 522.087 87.0176C522.139 87.0176 522.189 87.0196 522.239 87.0239C525.064 87.4222 527.735 88.5524 529.988 90.3025C527.925 92.4678 525.239 93.9366 522.302 94.5046ZM532.335 101.411C531.795 101.832 531.134 102.067 530.449 102.082C529.965 102.049 529.492 101.917 529.061 101.694C528.629 101.471 528.248 101.162 527.942 100.785C527.635 100.409 527.409 99.9733 527.277 99.5058C527.146 99.0383 527.112 98.5487 527.178 98.0676C528.11 95.7581 529.631 93.733 531.589 92.1936C531.589 92.1936 535.705 98.9414 532.335 101.411ZM539.661 98.5859C538.935 98.6228 538.221 98.3874 537.659 97.9258C535.703 95.8497 534.325 93.2979 533.661 90.524C534.351 90.4542 535.044 90.4205 535.738 90.4232C538.454 90.4232 542.944 90.9239 543.604 94.1611C543.72 94.7252 543.703 95.3086 543.554 95.865C543.405 96.4213 543.128 96.9349 542.745 97.3649C542.361 97.7949 541.883 98.1293 541.347 98.3413C540.812 98.5533 540.234 98.637 539.661 98.5859Z" fill="black"/>
<path d="M354.474 47.7613C352.367 47.1664 350.183 46.8927 347.995 46.9493C344.089 47.0603 340.193 47.4062 336.328 47.985C335.649 48.0626 334.966 48.1015 334.282 48.1015C331.812 48.024 329.361 47.6369 326.988 46.9493C326.82 46.8741 326.639 46.8353 326.455 46.8355C325.273 46.8355 324.366 48.4661 331.133 51.5365C336.498 54.1834 342.359 55.6758 348.336 55.9173C352.024 56.1055 355.656 54.9644 358.574 52.7012C358.925 52.4711 359.17 52.1111 359.255 51.7003C359.341 51.2896 359.26 50.8616 359.031 50.5104C359.015 50.444 358.396 49.0202 354.474 47.7613Z" fill="black"/>
<path d="M478.951 62.3463C476.824 62.6932 474.777 65.5799 477.606 66.8652C477.973 67.0634 478.378 67.1809 478.794 67.2097C480.182 67.2097 479.703 64.9407 482.106 63.9813C482.422 63.7938 482.695 63.5432 482.91 63.2452C483.124 62.9473 483.275 62.6083 483.352 62.2495C482.822 62.0695 482.264 61.9843 481.704 61.9979C480.777 62.0207 479.854 62.1374 478.951 62.3463Z" fill="black"/>
<path d="M485.771 50.6394C482.508 49.7227 479.127 49.2948 475.738 49.3699C475.064 49.3699 474.394 49.3814 473.731 49.4046C470.624 49.3695 467.588 50.3307 465.066 52.1473C463.161 51.094 461.018 50.5453 458.841 50.5536C453.35 50.1097 448.056 48.3068 443.436 45.3071C442.75 44.8107 442.117 44.3162 441.533 43.8179C446.107 41.2595 449.66 37.2038 451.595 32.3332C452.929 29.6695 453.679 26.7515 453.794 23.7745C453.91 20.7975 453.388 17.8302 452.264 15.0712C451.774 14.1242 451.035 13.3285 450.128 12.7696C449.22 12.2107 448.177 11.9096 447.11 11.8988C445.964 11.9895 444.851 12.3298 443.849 12.8959C442.848 13.462 441.982 14.2402 441.313 15.176C440.261 16.5784 438.817 17.6378 437.163 18.2205L437.088 18.2366L437.014 18.255C434.625 18.7774 432.34 19.6953 430.253 20.9707C430.332 17.0635 429.357 13.2073 427.43 9.80746C425.503 6.40767 422.695 3.59001 419.302 1.65085C418.348 0.992225 417.236 0.598698 416.079 0.510459C415.588 0.497021 415.103 0.619884 414.677 0.865432C414.251 1.11098 413.901 1.46963 413.667 1.90164C413.402 2.46411 413.306 3.09142 413.391 3.70739C413.475 4.32335 413.737 4.90147 414.144 5.37153C415.516 7.85195 416.332 10.6007 416.538 13.4277C416.743 16.2546 416.331 19.0925 415.332 21.7449C412.91 21.4599 410.474 21.3096 408.035 21.2948C400.797 21.3667 393.601 22.3834 386.627 24.3193C382.55 25.5839 378.552 27.0919 374.656 28.835C369.755 23.1461 367.199 15.807 367.507 8.30444C367.54 7.37873 367.586 6.54517 367.625 5.81564C367.776 3.02695 367.845 1.7543 366.909 0.766146C366.681 0.523436 366.405 0.330192 366.099 0.198401C365.794 0.0666095 365.464 -0.000917095 365.131 9.40632e-06C364.435 0.0156672 363.77 0.285371 363.26 0.758201C354.806 8.26702 352.389 22.5387 356.544 33.3036C354.703 32.8196 352.811 32.5602 350.907 32.5308C347.395 32.6119 343.921 33.2868 340.633 34.5268C340.217 34.6669 339.833 34.7972 339.478 34.9071C335.266 35.8883 330.945 36.3224 326.622 36.1985C325.418 36.1931 324.215 36.0894 323.052 35.989C321.963 35.8948 320.935 35.8061 319.952 35.8061C318.84 35.7436 317.727 35.9144 316.686 36.3076C315.644 36.7009 314.696 37.3077 313.902 38.0893C313.25 38.8174 312.762 39.677 312.471 40.6099C312.18 41.5428 312.093 42.5273 312.215 43.4969C312.962 51.5521 323.931 60.383 333.874 64.6127C337.91 66.387 342.265 67.3184 346.674 67.3499C349.765 67.2918 352.84 66.8931 355.844 66.1608L356.351 66.0525C356.532 67.3594 356.651 69.1818 356.745 70.6475C356.823 78.0018 358.488 85.2525 361.627 91.9039L360.355 96.1669C359.194 100.131 357.226 103.812 354.576 106.981C351.925 110.149 348.649 112.736 344.953 114.58L342.438 115.705C341.458 115.249 340.434 114.892 339.383 114.639C337.32 114.058 335.187 113.758 333.043 113.745C326.787 114.099 320.686 115.831 315.177 118.818C308.086 122.238 302.889 125.249 298.712 127.669C288.945 133.327 284.488 135.908 270.496 135.908C267.138 135.908 263.297 135.753 258.749 135.432C247.906 134.359 237.337 131.385 227.527 126.644C210.246 118.742 191.648 114.114 172.679 112.994C171.196 112.897 169.695 112.848 168.207 112.848C151.697 112.976 135.7 118.602 122.744 128.837C121.936 128.166 121.078 127.557 120.178 127.016C114.931 124.008 108.956 122.507 102.91 122.679C81.5714 123.44 76.8339 144.837 72.5909 164.222C71.3957 170.89 69.5476 177.424 67.0733 183.73C65.2589 187.505 62.3464 190.643 58.7175 192.734C55.6105 194.745 51.9071 195.628 48.227 195.236C36.1213 193.197 36.685 182.138 37.2154 172.009C37.6769 164.421 38.0601 157.277 34.2172 153.141C44.3828 144.048 27.6902 117.086 9.82819 114.708C9.57547 114.699 8.56769 114.494 9.36981 115.706C9.8533 116.4 10.4231 117.012 10.9082 117.622C15.0381 122.759 14.2611 132.71 14.8796 139.075C16.5011 156.081 26.1331 156.155 29.1123 155.677C32.9095 158.022 32.5658 164.626 32.2345 171.747C31.5454 183.985 30.8092 197.49 47.3731 200.195C52.2574 200.82 57.2059 199.709 61.3548 197.057C65.8396 194.442 69.4282 190.531 71.6491 185.838C74.2909 179.186 76.2654 172.287 77.5435 165.244C81.3799 147.79 85.6229 128.405 103.067 127.759C108.178 127.555 113.24 128.822 117.652 131.408C118.101 131.674 118.412 132.003 118.812 132.292C113.002 137.449 108.064 143.511 104.19 150.244C93.7416 168.814 94.7023 185.706 97.0443 205.86C97.2563 207.681 97.5342 209.768 97.8716 212.017L97.1213 214.62C93.1012 228.571 88.3417 241.606 74.4637 247.779C73.9943 247.992 73.3272 248.26 72.5486 248.574C66.5349 251.001 63.7282 252.441 62.9984 254.565C62.427 257.047 62.548 259.638 63.3485 262.056L63.5274 262.831C67.2399 277.961 63.0816 295.772 60.8479 305.342C59.5764 310.787 59.1918 312.431 59.9578 313.733C61.5448 316.407 60.6265 317.683 58.2091 320.567C56.9069 322.006 55.7938 323.606 54.897 325.327C53.6925 327.516 53.0928 329.986 53.1595 332.483C53.2263 334.98 53.9571 337.414 55.2769 339.535C57.2953 342.268 59.8971 344.518 62.8935 346.119C65.8898 347.721 69.2053 348.636 72.5991 348.796C77.1906 348.796 77.6427 346.12 77.6709 345.3C77.9526 338.234 79.831 331.324 83.165 325.087C85.2298 322.031 86.0708 318.31 85.5212 314.663C83.8887 308.594 85.708 291.301 87.452 281.52C87.846 279.423 88.4335 277.368 89.207 275.38C90.6011 280.656 93.147 285.559 96.6616 289.734C105.708 301.584 110.048 319.671 112.136 328.363C113.45 333.839 113.817 335.368 115.756 336.663C118.858 338.825 118.842 338.893 118.209 341.69C116.553 347.809 117.389 354.336 120.534 359.84C122.489 363.755 127.195 365.665 134.916 365.665C138.583 365.665 157.913 364.275 161.285 357.667C161.779 356.708 161.998 355.63 161.916 354.554C161.834 353.478 161.454 352.446 160.82 351.573C151.418 338.275 143.266 324.136 136.468 309.337C131.825 299.439 130.618 291.31 132.724 284.138C133.224 284.317 133.723 284.5 134.216 284.662C133.874 285.946 133.816 287.289 134.044 288.599C134.272 289.908 134.781 291.152 135.536 292.245C136.292 293.339 137.275 294.255 138.419 294.931C139.563 295.608 140.84 296.028 142.162 296.163C142.587 296.208 143.015 296.231 143.443 296.232C145.83 296.207 148.12 295.282 149.854 293.642C151.589 292.002 152.64 289.767 152.798 287.385C154.261 287.378 155.704 287.32 157.118 287.212C157.185 287.855 157.299 288.493 157.457 289.12C157.91 291.222 159.08 293.102 160.766 294.437C162.452 295.772 164.55 296.48 166.7 296.439C168.376 296.46 170.029 296.039 171.491 295.219C172.953 294.399 174.173 293.208 175.029 291.766C175.801 290.436 176.262 288.948 176.378 287.415C176.494 285.881 176.262 284.341 175.699 282.909C176.125 282.737 176.549 282.559 176.972 282.376C178.143 283.7 179.574 284.768 181.176 285.514C182.778 286.261 184.516 286.67 186.282 286.716C188.783 286.751 191.2 285.816 193.026 284.108C194.853 282.399 195.946 280.049 196.076 277.551C196.202 276.366 196.075 275.167 195.703 274.034C195.33 272.902 194.721 271.861 193.916 270.982C194.495 270.405 195.092 269.789 195.715 269.125L196.101 268.715C199.51 270.466 203.048 271.955 206.684 273.168C222.51 278.106 238.988 280.64 255.566 280.685C256.258 280.685 256.944 280.68 257.624 280.67C269.578 280.657 281.489 279.235 293.111 276.435C305.364 273.879 317.138 269.409 328 263.191C330.6 261.542 333.056 259.809 335.226 258.233C337.37 265.459 338.313 272.988 338.017 280.519C337.346 292.131 331.576 319.339 326.616 327.834C325.752 329.258 325.31 330.898 325.341 332.563C325.372 334.228 325.875 335.851 326.791 337.242C327.174 338.095 327.611 339.063 328.016 340.182C328.836 342.283 328.956 344.593 328.358 346.768C327.971 348.694 327.739 350.647 327.664 352.61L327.608 354.188L329.075 354.769C338.277 355.981 347.544 356.637 356.825 356.734L359.464 356.819L359.112 354.201C358.3 348.219 356.681 342.374 354.299 336.826C350.424 327.045 347.864 320.584 362.224 289.157C364.111 281.742 365.223 274.151 365.542 266.505C366.526 266.532 367.496 266.55 368.418 266.565C370.044 266.591 371.603 266.615 373.037 266.694C374.869 266.809 376.697 266.866 378.59 266.866C381.523 266.866 384.027 266.725 386.04 266.611C387.432 266.533 388.634 266.466 389.586 266.466C389.966 266.462 390.346 266.478 390.725 266.515C397.138 275.113 395.67 287.783 394.959 293.93C394.538 297.562 394.014 302.083 398.577 303.329L398.711 303.366L398.847 303.395C398.934 303.411 399.018 303.436 399.098 303.472C399.448 304.955 399.576 306.481 399.478 308.001C399.438 309.383 399.512 310.765 399.699 312.134C400.99 320.857 407.981 326.12 418.386 326.12C426.85 326.12 437.102 322.447 439.605 316.299C440.213 314.829 440.354 313.207 440.008 311.654C439.662 310.102 438.846 308.693 437.671 307.62C428.338 298.444 422.288 275.018 421.265 265.096C419.839 251.851 417.158 246.166 410.637 242.546C406.412 240.372 401.822 238.995 397.097 238.485C393.643 238.081 390.263 237.193 387.057 235.847C386.277 235.457 385.555 234.96 384.914 234.369C394.166 228.283 401.77 220.005 407.05 210.272C412.33 200.538 415.123 189.65 415.179 178.576C415.219 172.891 415.064 168.194 414.927 164.05C414.325 155.041 414.805 145.992 416.358 137.097C418.701 124.225 422.373 118.498 431.537 108.835L432.152 108.167C432.418 107.875 432.79 107.467 433.038 107.234L435.479 106.751C436.581 107.399 437.718 107.984 438.886 108.504C441.419 109.583 444.147 110.128 446.9 110.105C451.899 110.102 456.769 108.512 460.806 105.563C460.841 105.537 460.863 105.506 460.897 105.479L462.194 105.883C463.983 106.422 465.844 106.688 467.713 106.672C472.977 106.672 478.118 105.073 482.453 102.086C484.53 100.5 486.212 98.4545 487.367 96.1099C488.522 93.7653 489.119 91.1852 489.11 88.5716C489.225 87.3904 489.346 86.1691 489.589 84.8886L490.399 80.6068C492.915 77.8716 494.781 74.604 495.859 71.0475C497.033 67.0005 496.649 62.6604 494.782 58.8828C492.914 55.1051 489.7 52.1641 485.771 50.6394ZM191.018 277.204C190.977 278.42 190.456 279.571 189.568 280.404C188.68 281.236 187.499 281.683 186.283 281.647C184.754 281.495 183.286 280.972 182.006 280.122C180.726 279.273 179.674 278.123 178.941 276.773C178.801 276.528 178.639 276.296 178.457 276.079C175.375 277.655 172.159 278.955 168.847 279.965C170.091 283.054 172.522 286.016 170.631 289.247C170.219 289.914 169.639 290.462 168.949 290.835C168.259 291.207 167.484 291.392 166.7 291.371C165.688 291.416 164.694 291.094 163.901 290.463C163.109 289.832 162.572 288.935 162.39 287.938C162.088 286.912 162.135 285.561 161.762 284.195C161.542 283.257 161.318 282.403 161.091 281.633C158.244 282.099 155.362 282.328 152.477 282.317C151.24 282.317 150.017 282.279 148.808 282.21C147.468 285.799 148.227 291.163 143.443 291.163C143.22 291.163 142.988 291.151 142.74 291.128C141.894 291.024 141.096 290.675 140.446 290.124C139.796 289.572 139.321 288.843 139.081 288.025C138.84 287.207 138.844 286.337 139.093 285.521C139.341 284.706 139.822 283.981 140.478 283.435C141.011 282.836 141.411 282.129 141.65 281.363C139.278 280.902 136.945 280.256 134.673 279.432C137.033 275.235 140.224 271.563 144.05 268.641C148.781 265.132 153.772 261.987 158.978 259.234C161.768 257.65 164.653 256.013 167.472 254.302C168.414 253.718 169.366 253.115 170.329 252.495L171.833 253.394C173.979 254.676 176.404 256.371 178.969 258.167C182.608 260.713 186.72 263.57 191.412 266.269C189.811 267.981 188.085 269.572 186.249 271.03C188.19 273.551 191.315 273.662 191.018 277.204ZM479.282 98.131C475.84 100.377 471.823 101.583 467.713 101.602C466.749 101.567 465.79 101.433 464.853 101.203C465.924 99.5844 466.889 97.8972 467.74 96.1523C469.933 91.8567 471.355 89.3765 475.058 88.3586C478.292 87.5496 481.437 86.4206 484.447 84.9883C483.616 90.4236 484.434 94.0234 479.282 98.131ZM491.044 69.4586C488.01 78.653 482.684 81.0001 473.716 83.4713C463.638 86.2407 464.111 96.6598 457.764 101.508C454.604 103.797 450.802 105.032 446.9 105.035C444.853 105.056 442.823 104.658 440.935 103.867C436.954 102.01 433.325 99.477 430.209 96.3808C427.742 94.2017 425.788 91.5041 424.486 88.4811C423.759 86.431 425.884 82.5373 425.286 82.5373C424.936 82.5373 423.646 83.8829 420.284 87.739C417.968 90.4012 415.263 93.8559 416.439 93.8559C418.026 93.3343 419.491 92.496 420.745 91.3917C420.84 91.3246 420.952 91.2876 421.068 91.2854C422.164 91.2858 423.388 94.8703 428.157 99.3523C429.249 100.415 430.399 101.416 431.603 102.351C430.154 102.637 429.09 104.037 427.859 105.346C417.929 115.817 413.89 122.354 411.366 136.218C408.302 153.652 410.364 161.09 410.091 180.297L408.901 182.176C405.112 183.298 398.88 179.786 394.11 174.662C388.842 169.005 380.436 174.672 378.414 182.556C376.392 190.44 385.845 190.28 393.774 198.021C394.913 199.178 395.761 200.589 396.246 202.139C397.063 205.66 397.064 209.322 396.25 212.844C395.435 216.366 393.826 219.655 391.546 222.46C391.18 222.934 390.773 223.373 390.328 223.774C387.778 226.216 384.974 228.379 381.965 230.227C379.254 224.638 377.525 218.625 376.854 212.45L376.847 212.454C373.59 220.795 374.928 235.474 384.815 240.393C392.212 244.04 401.467 243.017 408.176 246.977C412.571 249.417 414.888 253.221 416.223 265.616C417.947 278.967 422.124 291.885 428.544 303.717C420.839 306.39 412.639 307.327 404.53 306.462C404.464 302.981 403.95 299.308 399.913 298.44C398.489 298.051 405.258 276.642 394.331 262.89C393.396 261.71 391.876 261.397 389.586 261.397C386.997 261.397 383.423 261.796 378.59 261.796C376.976 261.796 375.221 261.752 373.319 261.633C364.709 261.157 351.804 262.557 345.991 254.823C342.087 248.087 341.346 230.893 340.505 221.307L340.498 221.271C339.22 226.952 338.506 232.746 338.367 238.567C338.371 242.112 338.613 245.652 339.089 249.164C337.77 250.009 335.276 251.92 332.273 254.103C331.785 254.426 331.267 254.751 330.877 254.99C330.233 255.372 329.568 255.717 328.884 256.023C327.64 256.663 326.312 257.123 324.939 257.391C323.552 257.654 322.116 257.385 320.919 256.637C320.056 255.873 319.35 254.948 318.841 253.913C317.245 250.031 315.242 246.329 312.863 242.871C307.612 236.717 303.597 244.778 302.186 249.451C300.776 254.125 303.774 253.735 306.741 257.819C307.067 258.34 307.278 258.924 307.361 259.533C307.444 260.142 307.397 260.762 307.223 261.351C306.799 262.716 306.082 263.973 305.123 265.032C304.163 266.092 302.984 266.929 301.668 267.486C299.288 268.623 296.819 269.565 294.287 270.3C291.332 271.294 288.323 272.116 285.273 272.763C281.669 273.465 277.99 273.708 274.324 273.486C273.55 273.485 272.785 273.323 272.076 273.011C271.463 272.677 270.969 272.16 270.664 271.532C270.455 271.004 270.301 270.456 270.204 269.897C270.405 264.104 274.478 255.206 272.362 249.134C269.205 240.071 264.027 245.853 261.721 240.798C259.415 235.743 266.783 231.282 272.158 226.999C277.531 222.715 277.699 211.036 269.049 209.608C260.398 208.18 246.298 220.11 244.969 229.51C243.639 238.91 239.241 243.725 233.528 243.522C227.818 243.318 235.56 235.39 219.925 241.545C211.511 244.857 210.19 253.787 210.745 261.35C210.744 261.367 210.723 261.369 210.725 261.387C210.968 262.804 210.959 264.253 210.698 265.668C210.484 266.144 210.148 266.556 209.723 266.86C209.298 267.165 208.801 267.351 208.281 267.401C206.8 267.559 205.303 267.342 203.928 266.77C191.04 261.6 181.903 253.505 174.433 249.042C184.501 242.559 192.763 233.63 198.446 223.09C204.221 213.321 206.921 202.039 206.193 190.714L206.195 190.696C206.476 180.023 195.464 174.539 191.792 172.916C188.121 171.293 182.58 173.333 178.9 178.892C175.221 184.451 179.671 185.163 173.739 191.167C167.805 197.171 163.611 175.392 160.683 166.834C157.756 158.276 156.035 157.718 151.131 155.802C146.227 153.887 140.179 156.158 141.729 168.147C143.28 180.136 147.311 179.285 151.594 184.659C155.878 190.033 151.86 191.133 144.652 198.086C137.442 205.039 140.402 210.863 145.565 221.241C150.73 231.618 160.349 231.961 164.065 239.801C165.103 241.949 165.338 244.397 164.726 246.703C164.115 249.008 162.698 251.019 160.732 252.37C153.838 255.999 147.208 260.111 140.894 264.675C125.138 277.222 122.828 292.193 131.866 311.46C136.771 322.077 142.339 332.375 148.537 342.293C133.901 347.467 126.391 345.634 122.956 343.702C123.845 339.563 125.028 336.945 118.6 332.467C117.36 331.662 113.706 303.708 100.699 286.668C94.5583 278.584 91.4282 271.537 96.6759 266.65C101.515 262.545 105.094 257.156 107.001 251.103C108.908 245.051 109.064 238.583 107.452 232.446C104.911 223.554 103.114 214.466 102.079 205.276C99.8797 186.338 98.762 170.229 108.604 152.736C114.193 143.11 122.007 134.962 131.391 128.976C140.776 122.989 151.458 119.338 162.543 118.328L163.008 118.31C163.683 118.286 164.356 118.266 165.031 118.256C165.802 118.225 166.574 118.264 167.337 118.372C168.693 118.654 170.003 119.125 171.227 119.773C174.54 121.543 177.112 124.439 178.479 127.938C180.679 135.972 177.691 136.114 180.484 141.435C183.278 146.756 190.905 152.249 196.186 148.956C201.467 145.664 199.064 143.341 204.473 138.064C207.08 135.476 210.087 133.326 213.38 131.696C215.406 130.782 217.601 130.302 219.823 130.288C222.046 130.275 224.247 130.727 226.284 131.615C229.518 132.956 232.664 134.246 235.861 135.414C237.921 136.192 239.787 137.407 241.33 138.977C242.873 140.547 244.057 142.433 244.799 144.505C246.159 148.192 246.807 151.973 244.93 153.927C240.505 158.562 236.872 163.892 234.174 169.704C232.711 175.867 235.48 181.876 240.977 181.106C243.27 181.087 245.492 180.31 247.296 178.895C249.101 177.48 250.386 175.508 250.951 173.286C251.855 168.843 252.016 164.373 256.689 165.783C261.362 167.193 258.756 170.581 263.296 175.715C267.837 180.85 272.617 186.241 280.12 185.017C287.622 183.793 291.78 178.72 289.484 173.417C287.187 168.114 281.947 168.625 279.246 160.721C276.544 152.817 282.66 148.311 291.294 143.398C297.954 139.162 303.887 133.879 308.865 127.754C311.369 126.392 314.143 124.944 317.358 123.393C322.184 120.726 327.541 119.162 333.044 118.814C334.793 118.831 336.532 119.085 338.213 119.571C340.59 120.439 342.899 121.483 345.122 122.692C348.762 124.404 352.7 125.39 356.717 125.596C357.36 125.599 358.003 125.553 358.639 125.458C354.557 123.79 350.663 121.695 347.023 119.208C351.382 117.061 355.249 114.033 358.38 110.317C361.511 106.6 363.838 102.275 365.214 97.6146C369.661 104.185 380.883 108.731 391.165 108.731C394.311 108.952 397.466 108.464 400.398 107.302C403.329 106.141 405.963 104.336 408.104 102.02C403.957 104.1 399.371 105.151 394.733 105.087C391.972 105.084 389.223 104.732 386.55 104.042C351.68 95.0517 367.27 60.6387 358.007 60.6387C357.746 60.6403 357.485 60.6643 357.227 60.7105C353.77 61.5805 350.235 62.1067 346.674 62.2814C342.947 62.2507 339.266 61.4567 335.858 59.9484C326.528 55.9794 317.753 48.3084 317.263 43.0474C317.108 41.3023 318.158 40.8749 319.952 40.8749C321.646 40.8749 324.001 41.256 326.63 41.2673C331.458 41.4054 336.283 40.8949 340.976 39.7494C344.144 38.4875 347.501 37.761 350.907 37.5997C353.061 37.6012 355.197 37.9762 357.222 38.7079C358.807 39.4657 360.471 40.0442 362.184 40.4326L362.258 40.4249C370.462 35.9316 379.051 32.1816 387.923 29.2197C394.475 27.4001 401.236 26.4401 408.035 26.3639C411.161 26.3595 414.283 26.5998 417.372 27.0825C417.708 27.179 418.13 27.1944 418.634 27.2968C421.396 27.8099 424.193 28.1209 427 28.2272C428.947 28.2272 430.424 27.9192 430.989 27.0609C431.343 26.4718 431.823 25.9689 432.396 25.5885C434.157 24.3967 436.143 23.5756 438.232 23.175C443.362 22.0676 445.657 16.9671 447.109 16.9675C447.369 16.9675 447.603 17.1319 447.821 17.5126C450.999 23.292 446.167 37.8352 436.863 40.2098C436.542 40.3231 436.227 40.4529 435.92 40.5988C434.06 39.5847 430.827 32.9902 430.287 32.9902C430.2 32.9902 430.184 33.1594 430.25 33.5463C430.741 36.7524 431.9 39.8195 433.654 42.5483C435.407 45.2771 437.714 47.6067 440.426 49.3857C445.846 52.9596 452.083 55.1024 458.555 55.6141C466.743 56.0752 459.298 58.5161 457.171 58.863C451.566 58.8685 445.965 59.1769 440.393 59.7869C429.155 62.0323 429.214 71.5147 430.675 71.5147C430.942 71.5147 431.254 71.1988 431.556 70.4656C434.133 64.5532 439.748 63.6541 445.024 62.7429C447.521 62.272 450.056 62.0346 452.596 62.0338C453.601 62.0338 454.533 62.0671 455.449 62.0997C455.767 62.1113 456.097 62.1177 456.436 62.1177C458.604 62.2378 460.765 61.7653 462.685 60.7509C467.702 57.6318 467.126 54.8204 473.904 54.47C474.508 54.4496 475.122 54.4386 475.738 54.4386C478.559 54.3588 481.377 54.6914 484.103 55.426C486.786 56.4977 488.979 58.5231 490.26 61.1132C491.542 63.7033 491.821 66.6753 491.044 69.4586Z" fill="black"/>
<path d="M316.401 153.244C304.187 156.786 314.979 169.602 315.396 178.816C315.812 188.03 312.089 187.898 303.97 191.337C295.851 194.777 301.003 198.939 301.003 198.939C313.118 200.863 330.348 191.781 332.768 185.9C335.189 180.02 331.597 177.654 342.416 167.101C353.235 156.547 328.616 149.702 316.401 153.244Z" fill="black"/>
<path d="M455.386 72.449C452.909 72.4493 447.693 75.6767 448.46 80.2023L448.467 80.1854C448.612 80.255 448.767 80.3008 448.926 80.3208C448.968 80.3208 449.009 80.3164 449.049 80.3079C451.815 80.2439 449.196 77.8007 454.312 77.8007C454.519 77.8007 454.739 77.8046 454.973 77.8133C455.061 77.8164 455.144 77.818 455.227 77.818C459.067 77.818 458.015 74.5031 456.42 72.7905C456.28 72.6663 456.116 72.572 455.938 72.5133C455.76 72.4545 455.573 72.4327 455.386 72.449Z" fill="black"/>
<path d="M406.557 41.5345C403.777 41.6164 401.063 42.409 398.676 43.8369C396.68 45.0119 394.952 46.5925 393.605 48.4767C393.059 49.1548 392.832 49.8043 393.222 49.8043C393.572 49.7356 393.898 49.5765 394.167 49.3428C397.586 46.2555 402.028 44.5455 406.634 44.5433C407.667 44.5462 408.699 44.6115 409.723 44.7388L409.824 44.7458C410.629 44.7458 413.103 43.6529 412.232 43.1368C410.532 42.0713 408.563 41.5152 406.557 41.5345Z" fill="black"/>
<path d="M408.468 49.6473C407.953 49.5254 407.425 49.4708 406.897 49.4848C406.27 49.4668 405.648 49.5959 405.08 49.8616C404.717 50.1045 404.415 50.4276 404.196 50.806C403.978 51.1844 403.849 51.6079 403.82 52.0439C403.752 52.6351 403.863 53.2331 404.138 53.7608C404.413 54.2886 404.84 54.7218 405.363 55.0048C404.399 55.2407 403.382 55.113 402.506 54.6461C402.023 54.3546 401.617 53.951 401.323 53.4694C401.029 52.9878 400.856 52.4424 400.817 51.8794C400.81 51.3795 400.935 50.8865 401.178 50.4498C400.487 50.7666 399.843 51.1784 399.266 51.6734C398.566 52.3805 398.117 53.2971 397.987 54.2835C397.566 57.2287 400.569 58.9072 403.903 58.9072C405.631 59.0413 407.352 58.5825 408.784 57.6064C410.215 56.6302 411.271 55.1952 411.777 53.5381C412.416 50.7493 408.468 49.6473 408.468 49.6473Z" fill="black"/>
</g>
<defs>
<clipPath id="clip0_108_1318">
<rect width="547.02" height="390.049" fill="white"/>
</clipPath>
</defs>
</svg>
